# Created by Kenney (www.kenney.nl)

mtllib Sci-fi Door.mtl

g mergedBlocks

v 1.1089 0 -0.1089001
v -0.4911001 0 -0.1088999
v 1.1089 0 0.1088999
v -0.4911001 0 0.1089001
v -0.4911001 1.188 0.1089001
v 1.1089 1.188 0.1088999
v -0.4911001 1.188 -0.1088999
v 1.1089 1.188 -0.1089001
v -0.6000001 -2.980232E-08 0.3
v -0.6000001 -2.980232E-08 -0.34
v -0.6 0.6 0.3
v -0.6 0.6 -0.34
v 0.4000001 0.2999999 -0.02
v 1.3 0.6 0.3
v 1.3 0.6 -0.34
v 1.3 -2.980232E-08 0.3
v 1.3 -2.980232E-08 -0.34
v 0.2999998 0.2999999 -0.02
v 1.3 1.302 0.3
v 1.3 1.302 -0.34
v 1.3 0.5999999 0.3
v 1.3 0.5999999 -0.34
v 0.2999998 0.9509999 -0.02
v -0.6000001 0.6 0.3
v -0.6000001 0.6 -0.34
v -0.6 1.326 0.3
v -0.6 1.326 -0.34
v 0.4000001 0.9629999 -0.02
v 1.3 0 0.3
v 1.3 0 -0.4
v 1.1 0 0.3
v 1.1 0 -0.4
v 1.1 1.17 -0.4
v 1.1 1.17 0.3
v 1.3 1.17 -0.4
v 1.3 1.17 0.3
v -0.4 0 0.32
v -0.4 0 -0.4
v -0.6 0 0.32
v -0.6 0 -0.4
v -0.6 1.17 -0.4
v -0.6 1.17 0.32
v -0.4 1.17 -0.4
v -0.4 1.17 0.32
v 1.3 1.096 0
v 1.3 1.096 0.13
v -0.5 1.096 0
v -0.5 1.096 0.13
v -0.5 1.24 0.13
v -0.5 1.24 0
v 1.3 1.24 0.13
v 1.3 1.24 0
v 0.1220491 0.04234913 -0.039
v 0.1220491 0.04234913 0.13
v 0.6903509 0.6106509 -0.039
v 0.6903509 0.6106509 0.13
v 0.7264134 0.5745884 0.13
v 0.7264134 0.5745884 -0.039
v 0.1581115 0.006286681 0.13
v 0.1581115 0.006286681 -0.039
v 0.7142545 0.5676454 -0.039
v 0.7142545 0.5676454 0.13
v 0.08054549 1.201355 -0.039
v 0.08054549 1.201355 0.13
v 0.1058599 1.226669 0.13
v 0.1058599 1.226669 -0.039
v 0.7395689 0.5929599 0.13
v 0.7395689 0.5929599 -0.039
v 1.155 0 0.03
v 1.155 0 -0.3
v -0.4244999 0 0.03
v -0.4244999 0 -0.3
v -0.4244999 1.32 -0.3
v -0.4244999 1.32 0.03
v 1.155 1.32 -0.3
v 1.155 1.32 0.03
v 1.141569 1.178378 0.276
v 1.141569 0.01081133 0.276
v 1.146364 1.178378 0.2875767
v 1.146364 0.01081133 0.2875767
v 1.148 1.178378 0.3
v 1.148 0.01081133 0.3
v 1.146364 1.178378 0.3124233
v 1.146364 0.01081133 0.3124233
v 1.141569 1.178378 0.324
v 1.141569 0.01081133 0.324
v 1.133941 0.01081133 0.2660589
v 1.133941 1.178378 0.2660589
v 1.133941 1.178378 0.3339411
v 1.133941 0.01081133 0.3339411
v 1.124 0.01081133 0.3415692
v 1.124 1.178378 0.3415692
v 1.112423 0.01081133 0.3463644
v 1.112423 1.178378 0.3463644
v 1.1 0.01081133 0.348
v 1.1 1.178378 0.348
v 1.087577 0.01081133 0.3463644
v 1.087577 1.178378 0.3463644
v 1.124 1.178378 0.2584308
v 1.124 0.01081133 0.2584308
v 1.112423 1.178378 0.2536356
v 1.112423 0.01081133 0.2536356
v 1.1 1.178378 0.252
v 1.1 0.01081133 0.252
v 1.087577 1.178378 0.2536356
v 1.087577 0.01081133 0.2536356
v 1.076 0.01081133 0.3415692
v 1.076 1.178378 0.3415692
v 1.066059 0.01081133 0.3339411
v 1.066059 1.178378 0.3339411
v 1.058431 1.178378 0.324
v 1.058431 0.01081133 0.324
v 1.053635 1.178378 0.3124233
v 1.053635 0.01081133 0.3124233
v 1.052 1.178378 0.3
v 1.052 0.01081133 0.3
v 1.053635 1.178378 0.2875767
v 1.053635 0.01081133 0.2875767
v 1.058431 1.178378 0.276
v 1.058431 0.01081133 0.276
v 1.066059 1.178378 0.2660589
v 1.066059 0.01081133 0.2660589
v 1.076 0.01081133 0.2584308
v 1.076 1.178378 0.2584308
v -0.3584309 1.178378 0.276
v -0.3584309 0.01081133 0.276
v -0.3536357 1.178378 0.2875767
v -0.3536357 0.01081133 0.2875767
v -0.3520001 1.178378 0.3
v -0.3520001 0.01081133 0.3
v -0.3536357 1.178378 0.3124233
v -0.3536357 0.01081133 0.3124233
v -0.3584309 1.178378 0.324
v -0.3584309 0.01081133 0.324
v -0.366059 0.01081133 0.2660589
v -0.366059 1.178378 0.2660589
v -0.366059 1.178378 0.3339411
v -0.366059 0.01081133 0.3339411
v -0.3760001 0.01081133 0.3415692
v -0.3760001 1.178378 0.3415692
v -0.3875768 0.01081133 0.3463644
v -0.3875768 1.178378 0.3463644
v -0.4000001 0.01081133 0.348
v -0.4000001 1.178378 0.348
v -0.4124234 0.01081133 0.3463644
v -0.4124234 1.178378 0.3463644
v -0.3760001 1.178378 0.2584308
v -0.3760001 0.01081133 0.2584308
v -0.3875768 1.178378 0.2536356
v -0.3875768 0.01081133 0.2536356
v -0.4000001 1.178378 0.252
v -0.4000001 0.01081133 0.252
v -0.4124234 1.178378 0.2536356
v -0.4124234 0.01081133 0.2536356
v -0.4240001 0.01081133 0.3415692
v -0.4240001 1.178378 0.3415692
v -0.4339412 0.01081133 0.3339411
v -0.4339412 1.178378 0.3339411
v -0.4415693 1.178378 0.324
v -0.4415693 0.01081133 0.324
v -0.4463645 1.178378 0.3124233
v -0.4463645 0.01081133 0.3124233
v -0.4480001 1.178378 0.3
v -0.4480001 0.01081133 0.3
v -0.4463645 1.178378 0.2875767
v -0.4463645 0.01081133 0.2875767
v -0.4415693 1.178378 0.276
v -0.4415693 0.01081133 0.276
v -0.4339412 1.178378 0.2660589
v -0.4339412 0.01081133 0.2660589
v -0.4240001 0.01081133 0.2584308
v -0.4240001 1.178378 0.2584308
v 1.3 0 0
v 1.3 0 0.13
v -0.5 0 0
v -0.5 0 0.13
v -0.5 0.072 0.13
v -0.5 0.072 0
v 1.3 0.072 0.13
v 1.3 0.072 0
v -0.3272 0 0.444
v -0.3272 0 -0.5665921
v -0.644 0 0.444
v -0.644 0 -0.5665921
v -0.4064 0.288 -0.313944
v -0.4064 0.288 0.191352
v -0.5648 0.288 -0.313944
v -0.5648 0.288 0.191352
v 1.3728 0 0.444
v 1.3728 0 -0.5665921
v 1.056 0 0.444
v 1.056 0 -0.5665921
v 1.2936 0.288 -0.313944
v 1.2936 0.288 0.191352
v 1.1352 0.288 -0.313944
v 1.1352 0.288 0.191352

vn 0 -1 0
vn 1.192093E-07 0 1
vn -1 0 1.192093E-07
vn 1 0 -1.192093E-07
vn -1.192093E-07 0 -1
vn 0 1 0
vn -1 1.192093E-07 0
vn 0.287348 0.9578262 0
vn 0.3047757 -3.633209E-08 0.9524241
vn 0.3047757 -3.633209E-08 -0.9524241
vn 0.2873478 -0.9578263 0
vn 1 1.192093E-07 0
vn -0.2873478 -0.9578263 0
vn -0.3047757 -3.633209E-08 0.9524241
vn -0.3047757 -3.633209E-08 -0.9524241
vn -0.287348 0.9578262 0
vn 1 1.192093E-07 0
vn -0.3311908 -0.9435638 0
vn -0.3047757 -3.633209E-08 0.9524241
vn -0.3047757 -3.633209E-08 -0.9524241
vn -0.331191 0.9435638 0
vn -1 1.192093E-07 0
vn 0.3412148 0.9399854 0
vn 0.3047757 -3.633209E-08 0.9524241
vn 0.3047757 -3.633209E-08 -0.9524241
vn 0.3412146 -0.9399854 0
vn -1 0 0
vn 0 0 -1
vn 0 0 1
vn 1 0 0
vn -0.7071067 0.7071068 0
vn 0.7071069 0.7071066 0
vn -0.7071069 -0.7071066 0
vn 0.7071067 -0.7071068 0
vn -0.7071068 -0.7071067 0
vn -0.7071066 0.7071069 0
vn 0.7071066 -0.7071069 0
vn 0.7071068 0.7071067 0
vn 0.8660254 0 -0.4999999
vn 0.9659258 0 -0.258819
vn 0.9659258 0 0.258819
vn 0.8660254 0 0.4999999
vn 0.7071068 0 -0.7071068
vn 0.7071068 0 0.7071068
vn 0.4999999 0 0.8660254
vn 0.258819 0 0.9659258
vn -0.258819 0 0.9659258
vn 0.4999999 0 -0.8660254
vn 0.258819 0 -0.9659258
vn -0.258819 0 -0.9659258
vn -0.4999999 0 0.8660254
vn -0.7071068 0 0.7071068
vn -0.8660254 0 0.4999999
vn -0.9659258 0 0.258819
vn -0.9659258 0 -0.258819
vn -0.8660254 0 -0.4999999
vn -0.7071068 0 -0.7071068
vn -0.4999999 0 -0.8660254
vn 0.9642054 0.2651565 0
vn -0.9642054 0.2651565 0
vn 0 0.659462 -0.7517378
vn 0 0.659462 0.7517378

vt -1.1089 0.1089001
vt 0.4911001 0.1088999
vt -1.1089 -0.1088999
vt 0.4911001 -0.1089001
vt -0.4911001 0
vt -0.4911001 1.188
vt 1.1089 0
vt 1.1089 1.188
vt 0.1089001 0
vt -0.1088999 0
vt 0.1089001 1.188
vt -0.1088999 1.188
vt 0.4911001 1.188
vt 0.4911001 0
vt -1.1089 1.188
vt -1.1089 0
vt 0.4911001 -0.1088999
vt -1.1089 -0.1089001
vt 0.4911001 0.1089001
vt -1.1089 0.1088999
vt 0.3 -2.980232E-08
vt -0.34 -2.980232E-08
vt 0.3 0.6
vt -0.34 0.6
vt 0.6 -0.34
vt -0.4000001 -0.02
vt 0.6 0.3
vt -0.6000001 -2.980232E-08
vt -0.6 0.6
vt 0.4000001 0.2999999
vt 0.6 0.6
vt 0.6000001 -2.980232E-08
vt -0.4000001 0.2999999
vt -0.4000001 0.02
vt 0.6000001 0.34
vt 0.6000001 -0.3
vt -0.3 0.6
vt 0.34 0.6
vt -0.3 -2.980232E-08
vt 0.34 -2.980232E-08
vt -1.3 0.34
vt -0.2999998 0.02
vt -1.3 -0.3
vt 1.3 0.6
vt 1.3 -2.980232E-08
vt 0.2999998 0.2999999
vt -1.3 -2.980232E-08
vt -1.3 0.6
vt -0.2999998 0.2999999
vt -0.2999998 -0.02
vt -1.3 -0.34
vt -1.3 0.3
vt -0.3 1.302
vt 0.34 1.302
vt -0.3 0.5999999
vt 0.34 0.5999999
vt 1.3 1.302
vt 1.3 0.5999999
vt 0.2999998 0.9509999
vt -1.3 0.5999999
vt -1.3 1.302
vt -0.2999998 0.9509999
vt 0.3 0.6
vt -0.34 0.6
vt 0.3 1.326
vt -0.34 1.326
vt -0.6000001 0.6
vt -0.6 1.326
vt 0.4000001 0.9629999
vt 0.6 1.326
vt 0.6000001 0.6
vt -0.4000001 0.9629999
vt -1.3 -0.3
vt -1.3 0.4
vt -1.1 -0.3
vt -1.1 0.4
vt -0.4 0
vt -0.4 1.17
vt 0.3 0
vt 0.3 1.17
vt -1.1 0
vt -1.3 0
vt -1.1 1.17
vt -1.3 1.17
vt 1.3 0
vt 1.1 0
vt 1.3 1.17
vt 1.1 1.17
vt 0.4 1.17
vt 0.4 0
vt -0.3 1.17
vt -0.3 0
vt -1.3 -0.4
vt -1.3 0.3
vt -1.1 -0.4
vt -1.1 0.3
vt 0.4 -0.32
vt 0.4 0.4
vt 0.6 -0.32
vt 0.6 0.4
vt 0.32 0
vt 0.32 1.17
vt 0.6 0
vt 0.6 1.17
vt -0.6 0
vt -0.6 1.17
vt -0.32 1.17
vt -0.32 0
vt 0.4 -0.4
vt 0.4 0.32
vt 0.6 -0.4
vt 0.6 0.32
vt -1.3 0
vt -1.3 0.13
vt 0.5 0
vt 0.5 0.13
vt -0.13 1.096
vt -0.13 1.24
vt 0 1.096
vt 0 1.24
vt 0.5 1.096
vt -1.3 1.096
vt 0.5 1.24
vt -1.3 1.24
vt 1.3 1.096
vt -0.5 1.096
vt 1.3 1.24
vt -0.5 1.24
vt 0.13 1.24
vt 0.13 1.096
vt -1.3 -0.13
vt 0.5 -0.13
vt -0.1220491 0.039
vt -0.1220491 -0.13
vt -0.6903509 0.039
vt -0.6903509 -0.13
vt -0.7264134 -0.13
vt -0.7264134 0.039
vt -0.6903509 0.6106509
vt -0.1220491 0.04234913
vt -0.7264134 0.5745884
vt -0.1581115 0.006286677
vt 0.1220491 0.04234913
vt 0.6903509 0.6106509
vt 0.1581115 0.006286677
vt 0.7264134 0.5745884
vt -0.13 0.006286677
vt -0.13 0.04234913
vt 0.039 0.006286677
vt 0.039 0.04234913
vt -0.1581115 0.13
vt -0.1581115 -0.039
vt -0.7264134 0.13
vt -0.7264134 -0.039
vt 0.039 0.5676454
vt -0.13 0.5676454
vt 0.039 1.201355
vt -0.13 1.201355
vt -0.08054549 -0.13
vt -0.1058599 -0.13
vt -0.08054549 0.039
vt -0.1058599 0.039
vt -0.08054549 1.201355
vt -0.7142545 0.5676454
vt -0.1058599 1.226669
vt -0.7395689 0.5929599
vt 0.7142545 0.5676454
vt 0.08054549 1.201355
vt 0.7395689 0.5929599
vt 0.1058599 1.226669
vt -0.7395689 0.13
vt -0.7142545 0.13
vt -0.7395689 -0.039
vt -0.7142545 -0.039
vt -0.7395689 -0.13
vt -0.7395689 0.039
vt -1.155 -0.03
vt -1.155 0.3
vt 0.4244999 -0.03
vt 0.4244999 0.3
vt -0.3 1.32
vt 0.03 0
vt 0.03 1.32
vt 0.4244999 0
vt -1.155 0
vt 0.4244999 1.32
vt -1.155 1.32
vt 1.155 0
vt -0.4244999 0
vt 1.155 1.32
vt -0.4244999 1.32
vt 0.3 1.32
vt -0.03 1.32
vt -0.03 0
vt -1.155 -0.3
vt -1.155 0.03
vt 0.4244999 -0.3
vt 0.4244999 0.03
vt -0.276 1.178378
vt -0.276 0.01081133
vt -0.2875767 1.178378
vt -0.2875767 0.01081133
vt -0.3 1.178378
vt -0.3 0.01081133
vt -0.3124233 1.178378
vt -0.3124233 0.01081133
vt -0.324 1.178378
vt -0.324 0.01081133
vt -0.2660589 0.01081133
vt -0.2660589 1.178378
vt -0.3339411 1.178378
vt -0.3339411 0.01081133
vt -0.366059 0.01081133
vt -0.3760001 0.01081133
vt -0.366059 1.178378
vt -0.3760001 1.178378
vt -0.3875768 0.01081133
vt -0.3875768 1.178378
vt -0.4000001 0.01081133
vt -0.4000001 1.178378
vt -0.4124234 0.01081133
vt -0.4124234 1.178378
vt 0.366059 1.178378
vt 0.3760001 1.178378
vt 0.366059 0.01081133
vt 0.3760001 0.01081133
vt 0.3875768 1.178378
vt 0.3875768 0.01081133
vt 0.4000001 1.178378
vt 0.4000001 0.01081133
vt 0.4124234 1.178378
vt 0.4124234 0.01081133
vt -0.4240001 0.01081133
vt -0.4240001 1.178378
vt -0.4339412 0.01081133
vt -0.4339412 1.178378
vt 0.3339411 1.178378
vt 0.3339411 0.01081133
vt 0.324 1.178378
vt 0.324 0.01081133
vt 0.3124233 1.178378
vt 0.3124233 0.01081133
vt 0.3 1.178378
vt 0.3 0.01081133
vt 0.2875767 1.178378
vt 0.2875767 0.01081133
vt 0.276 1.178378
vt 0.276 0.01081133
vt 0.2660589 1.178378
vt 0.2660589 0.01081133
vt 0.4339412 0.01081133
vt 0.4240001 0.01081133
vt 0.4339412 1.178378
vt 0.4240001 1.178378
vt 0.3520001 -0.3
vt 0.3536357 -0.2875767
vt 0.3536357 -0.3124233
vt 0.3584309 -0.276
vt 0.3584309 -0.324
vt 0.366059 -0.2660589
vt 0.366059 -0.3339411
vt 0.3760001 -0.2584308
vt 0.3760001 -0.3415692
vt 0.3875768 -0.2536356
vt 0.3875768 -0.3463644
vt 0.4000001 -0.348
vt 0.4000001 -0.252
vt 0.4124234 -0.3463644
vt 0.4124234 -0.2536356
vt 0.4240001 -0.2584308
vt 0.4240001 -0.3415692
vt 0.4339412 -0.2660589
vt 0.4339412 -0.3339411
vt 0.4415693 -0.276
vt 0.4415693 -0.324
vt 0.4463645 -0.2875767
vt 0.4463645 -0.3124233
vt 0.4480001 -0.3
vt 0.3520001 0.3
vt 0.3536357 0.3124233
vt 0.3536357 0.2875767
vt 0.3584309 0.276
vt 0.3584309 0.324
vt 0.366059 0.2660589
vt 0.366059 0.3339411
vt 0.3760001 0.2584308
vt 0.3760001 0.3415692
vt 0.3875768 0.2536356
vt 0.3875768 0.3463644
vt 0.4000001 0.252
vt 0.4000001 0.348
vt 0.4124234 0.2536356
vt 0.4124234 0.3463644
vt 0.4240001 0.2584308
vt 0.4240001 0.3415692
vt 0.4339412 0.2660589
vt 0.4339412 0.3339411
vt 0.4415693 0.276
vt 0.4415693 0.324
vt 0.4463645 0.2875767
vt 0.4463645 0.3124233
vt 0.4480001 0.3
vt -0.13 0
vt -0.13 0.072
vt 0 0
vt 0 0.072
vt 0.5 0.072
vt -1.3 0.072
vt 1.3 0
vt -0.5 0
vt 1.3 0.072
vt -0.5 0.072
vt 0.13 0.072
vt 0.13 0
vt -1.3728 -0.444
vt -1.3728 0.5665921
vt -1.056 -0.444
vt -1.056 0.5665921
vt -1.2936 -0.313944
vt -1.2936 0.191352
vt -1.1352 -0.313944
vt -1.1352 0.191352
vt 0.5665921 0
vt -0.444 0
vt 0.313944 0.288
vt -0.191352 0.288
vt -0.5665921 0
vt -0.313944 0.288
vt 0.444 0
vt 0.191352 0.288
vt -1.056 0
vt -1.3728 0
vt -1.1352 0.288
vt -1.2936 0.288
vt 1.3728 0
vt 1.056 0
vt 1.2936 0.288
vt 1.1352 0.288

usemtl _defaultMat(Clone)

f 3/3/1 2/2/1 1/1/1
f 2/2/1 3/3/1 4/4/1
f 3/7/2 5/6/2 4/5/2
f 5/6/2 3/7/2 6/8/2
f 5/11/3 2/10/3 4/9/3
f 2/10/3 5/11/3 7/12/3
f 8/11/4 3/10/4 1/9/4
f 3/10/4 8/11/4 6/12/4
f 8/15/5 2/14/5 7/13/5
f 2/14/5 8/15/5 1/16/5
f 5/19/6 8/18/6 7/17/6
f 8/18/6 5/19/6 6/20/6
f 11/23/7 10/22/7 9/21/7
f 10/22/7 11/23/7 12/24/7
f 11/27/8 13/26/8 12/25/8
f 13/30/9 11/29/9 9/28/9
f 13/33/10 10/32/10 12/31/10
f 9/36/11 10/35/11 13/34/11
f 16/39/12 15/38/12 14/37/12
f 15/38/12 16/39/12 17/40/12
f 16/43/13 18/42/13 17/41/13
f 18/46/14 16/45/14 14/44/14
f 18/49/15 15/48/15 17/47/15
f 14/52/16 15/51/16 18/50/16
f 21/55/17 20/54/17 19/53/17
f 20/54/17 21/55/17 22/56/17
f 21/43/18 23/42/18 22/41/18
f 23/59/19 21/58/19 19/57/19
f 23/62/20 20/61/20 22/60/20
f 19/52/21 20/51/21 23/50/21
f 26/65/22 25/64/22 24/63/22
f 25/64/22 26/65/22 27/66/22
f 26/27/23 28/26/23 27/25/23
f 28/69/24 26/68/24 24/67/24
f 28/72/25 25/71/25 27/70/25
f 24/36/26 25/35/26 28/34/26
f 31/75/1 30/74/1 29/73/1
f 30/74/1 31/75/1 32/76/1
f 31/79/27 33/78/27 32/77/27
f 33/78/27 31/79/27 34/80/27
f 33/83/28 30/82/28 32/81/28
f 30/82/28 33/83/28 35/84/28
f 36/87/29 31/86/29 29/85/29
f 31/86/29 36/87/29 34/88/29
f 36/91/30 30/90/30 35/89/30
f 30/90/30 36/91/30 29/92/30
f 33/95/6 36/94/6 35/93/6
f 36/94/6 33/95/6 34/96/6
f 39/99/1 38/98/1 37/97/1
f 38/98/1 39/99/1 40/100/1
f 39/101/27 41/78/27 40/77/27
f 41/78/27 39/101/27 42/102/27
f 41/104/28 38/90/28 40/103/28
f 38/90/28 41/104/28 43/89/28
f 44/78/29 39/105/29 37/77/29
f 39/105/29 44/78/29 42/106/29
f 44/107/30 38/90/30 43/89/30
f 38/90/30 44/107/30 37/108/30
f 41/111/6 44/110/6 43/109/6
f 44/110/6 41/111/6 42/112/6
f 50/115/6 49/132/6 52/113/6
f 51/131/6 52/113/6 49/132/6
f 45/119/30 52/120/30 46/130/30
f 51/129/30 46/130/30 52/120/30
f 50/128/28 52/127/28 47/126/28
f 45/125/28 47/126/28 52/127/28
f 51/124/29 49/123/29 46/122/29
f 48/121/29 46/122/29 49/123/29
f 50/120/27 47/119/27 49/118/27
f 48/117/27 49/118/27 47/119/27
f 48/116/1 47/115/1 46/114/1
f 45/113/1 46/114/1 47/115/1
f 58/154/34 57/153/34 60/152/34
f 59/151/34 60/152/34 57/153/34
f 53/150/33 60/149/33 54/148/33
f 59/147/33 54/148/33 60/149/33
f 58/146/28 60/145/28 55/144/28
f 53/143/28 55/144/28 60/145/28
f 59/142/29 57/141/29 54/140/29
f 56/139/29 54/140/29 57/141/29
f 58/138/32 55/135/32 57/137/32
f 56/136/32 57/137/32 55/135/32
f 56/136/31 55/135/31 54/134/31
f 53/133/31 54/134/31 55/135/31
f 66/162/38 65/160/38 68/176/38
f 67/175/38 68/176/38 65/160/38
f 61/174/37 68/173/37 62/172/37
f 67/171/37 62/172/37 68/173/37
f 66/170/28 68/169/28 63/168/28
f 61/167/28 63/168/28 68/169/28
f 67/166/29 65/165/29 62/164/29
f 64/163/29 62/164/29 65/165/29
f 66/162/36 63/161/36 65/160/36
f 64/159/36 65/160/36 63/161/36
f 64/158/35 63/157/35 62/156/35
f 61/155/35 62/156/35 63/157/35
f 71/179/1 70/178/1 69/177/1
f 70/178/1 71/179/1 72/180/1
f 71/182/27 73/181/27 72/92/27
f 73/181/27 71/182/27 74/183/27
f 73/186/28 70/185/28 72/184/28
f 70/185/28 73/186/28 75/187/28
f 76/190/29 71/189/29 69/188/29
f 71/189/29 76/190/29 74/191/29
f 76/193/30 70/79/30 75/192/30
f 70/79/30 76/193/30 69/194/30
f 73/197/6 76/196/6 75/195/6
f 76/196/6 73/197/6 74/198/6
f 79/201/40 78/200/39 77/199/39
f 78/200/39 79/201/40 80/202/40
f 81/203/30 80/202/40 79/201/40
f 80/202/40 81/203/30 82/204/30
f 83/205/41 82/204/30 81/203/30
f 82/204/30 83/205/41 84/206/41
f 85/207/42 84/206/41 83/205/41
f 84/206/41 85/207/42 86/208/42
f 87/209/43 77/199/39 78/200/39
f 77/199/39 87/209/43 88/210/43
f 89/211/44 86/208/42 85/207/42
f 86/208/42 89/211/44 90/212/44
f 89/215/44 91/214/45 90/213/44
f 91/214/45 89/215/44 92/216/45
f 92/216/45 93/217/46 91/214/45
f 93/217/46 92/216/45 94/218/46
f 94/218/46 95/219/29 93/217/46
f 95/219/29 94/218/46 96/220/29
f 96/220/29 97/221/47 95/219/29
f 97/221/47 96/220/29 98/222/47
f 87/225/43 99/224/48 88/223/43
f 99/224/48 87/225/43 100/226/48
f 100/226/48 101/227/49 99/224/48
f 101/227/49 100/226/48 102/228/49
f 102/228/49 103/229/28 101/227/49
f 103/229/28 102/228/49 104/230/28
f 104/230/28 105/231/50 103/229/28
f 105/231/50 104/230/28 106/232/50
f 98/222/47 107/233/51 97/221/47
f 107/233/51 98/222/47 108/234/51
f 108/234/51 109/235/52 107/233/51
f 109/235/52 108/234/51 110/236/52
f 111/239/53 109/238/52 110/237/52
f 109/238/52 111/239/53 112/240/53
f 113/241/54 112/240/53 111/239/53
f 112/240/53 113/241/54 114/242/54
f 115/243/27 114/242/54 113/241/54
f 114/242/54 115/243/27 116/244/27
f 117/245/55 116/244/27 115/243/27
f 116/244/27 117/245/55 118/246/55
f 119/247/56 118/246/55 117/245/55
f 118/246/55 119/247/56 120/248/56
f 121/249/57 120/248/56 119/247/56
f 120/248/56 121/249/57 122/250/57
f 121/253/57 123/252/58 122/251/57
f 123/252/58 121/253/57 124/254/58
f 124/254/58 106/232/50 123/252/58
f 106/232/50 124/254/58 105/231/50
f 84/257/1 80/256/1 82/255/1
f 80/256/1 84/257/1 78/258/1
f 78/258/1 84/257/1 86/259/1
f 78/258/1 86/259/1 87/260/1
f 87/260/1 86/259/1 90/261/1
f 87/260/1 90/261/1 100/262/1
f 100/262/1 90/261/1 91/263/1
f 100/262/1 91/263/1 102/264/1
f 102/264/1 91/263/1 93/265/1
f 102/264/1 93/265/1 95/266/1
f 102/264/1 95/266/1 104/267/1
f 104/267/1 95/266/1 97/268/1
f 104/267/1 97/268/1 106/269/1
f 106/269/1 97/268/1 123/270/1
f 123/270/1 97/268/1 107/271/1
f 123/270/1 107/271/1 122/272/1
f 122/272/1 107/271/1 109/273/1
f 122/272/1 109/273/1 120/274/1
f 120/274/1 109/273/1 112/275/1
f 120/274/1 112/275/1 118/276/1
f 118/276/1 112/275/1 114/277/1
f 118/276/1 114/277/1 116/278/1
f 79/281/6 83/280/6 81/279/6
f 83/280/6 79/281/6 77/282/6
f 83/280/6 77/282/6 85/283/6
f 85/283/6 77/282/6 88/284/6
f 85/283/6 88/284/6 89/285/6
f 89/285/6 88/284/6 99/286/6
f 89/285/6 99/286/6 92/287/6
f 92/287/6 99/286/6 101/288/6
f 92/287/6 101/288/6 94/289/6
f 94/289/6 101/288/6 103/290/6
f 94/289/6 103/290/6 96/291/6
f 96/291/6 103/290/6 105/292/6
f 96/291/6 105/292/6 98/293/6
f 98/293/6 105/292/6 124/294/6
f 98/293/6 124/294/6 108/295/6
f 108/295/6 124/294/6 121/296/6
f 108/295/6 121/296/6 110/297/6
f 110/297/6 121/296/6 119/298/6
f 110/297/6 119/298/6 111/299/6
f 111/299/6 119/298/6 117/300/6
f 111/299/6 117/300/6 113/301/6
f 113/301/6 117/300/6 115/302/6
f 127/201/40 126/200/39 125/199/39
f 126/200/39 127/201/40 128/202/40
f 129/203/30 128/202/40 127/201/40
f 128/202/40 129/203/30 130/204/30
f 131/205/41 130/204/30 129/203/30
f 130/204/30 131/205/41 132/206/41
f 133/207/42 132/206/41 131/205/41
f 132/206/41 133/207/42 134/208/42
f 135/209/43 125/199/39 126/200/39
f 125/199/39 135/209/43 136/210/43
f 137/211/44 134/208/42 133/207/42
f 134/208/42 137/211/44 138/212/44
f 137/215/44 139/214/45 138/213/44
f 139/214/45 137/215/44 140/216/45
f 140/216/45 141/217/46 139/214/45
f 141/217/46 140/216/45 142/218/46
f 142/218/46 143/219/29 141/217/46
f 143/219/29 142/218/46 144/220/29
f 144/220/29 145/221/47 143/219/29
f 145/221/47 144/220/29 146/222/47
f 135/225/43 147/224/48 136/223/43
f 147/224/48 135/225/43 148/226/48
f 148/226/48 149/227/49 147/224/48
f 149/227/49 148/226/48 150/228/49
f 150/228/49 151/229/28 149/227/49
f 151/229/28 150/228/49 152/230/28
f 152/230/28 153/231/50 151/229/28
f 153/231/50 152/230/28 154/232/50
f 146/222/47 155/233/51 145/221/47
f 155/233/51 146/222/47 156/234/51
f 156/234/51 157/235/52 155/233/51
f 157/235/52 156/234/51 158/236/52
f 159/239/53 157/238/52 158/237/52
f 157/238/52 159/239/53 160/240/53
f 161/241/54 160/240/53 159/239/53
f 160/240/53 161/241/54 162/242/54
f 163/243/27 162/242/54 161/241/54
f 162/242/54 163/243/27 164/244/27
f 165/245/55 164/244/27 163/243/27
f 164/244/27 165/245/55 166/246/55
f 167/247/56 166/246/55 165/245/55
f 166/246/55 167/247/56 168/248/56
f 169/249/57 168/248/56 167/247/56
f 168/248/56 169/249/57 170/250/57
f 169/253/57 171/252/58 170/251/57
f 171/252/58 169/253/57 172/254/58
f 172/254/58 154/232/50 171/252/58
f 154/232/50 172/254/58 153/231/50
f 132/257/1 128/256/1 130/255/1
f 128/256/1 132/257/1 126/258/1
f 126/258/1 132/257/1 134/259/1
f 126/258/1 134/259/1 135/260/1
f 135/260/1 134/259/1 138/261/1
f 135/260/1 138/261/1 148/262/1
f 148/262/1 138/261/1 139/263/1
f 148/262/1 139/263/1 150/264/1
f 150/264/1 139/263/1 141/265/1
f 150/264/1 141/265/1 143/266/1
f 150/264/1 143/266/1 152/267/1
f 152/267/1 143/266/1 145/268/1
f 152/267/1 145/268/1 154/269/1
f 154/269/1 145/268/1 171/270/1
f 171/270/1 145/268/1 155/271/1
f 171/270/1 155/271/1 170/272/1
f 170/272/1 155/271/1 157/273/1
f 170/272/1 157/273/1 168/274/1
f 168/274/1 157/273/1 160/275/1
f 168/274/1 160/275/1 166/276/1
f 166/276/1 160/275/1 162/277/1
f 166/276/1 162/277/1 164/278/1
f 127/281/6 131/280/6 129/279/6
f 131/280/6 127/281/6 125/282/6
f 131/280/6 125/282/6 133/283/6
f 133/283/6 125/282/6 136/284/6
f 133/283/6 136/284/6 137/285/6
f 137/285/6 136/284/6 147/286/6
f 137/285/6 147/286/6 140/287/6
f 140/287/6 147/286/6 149/288/6
f 140/287/6 149/288/6 142/289/6
f 142/289/6 149/288/6 151/290/6
f 142/289/6 151/290/6 144/291/6
f 144/291/6 151/290/6 153/292/6
f 144/291/6 153/292/6 146/293/6
f 146/293/6 153/292/6 172/294/6
f 146/293/6 172/294/6 156/295/6
f 156/295/6 172/294/6 169/296/6
f 156/295/6 169/296/6 158/297/6
f 158/297/6 169/296/6 167/298/6
f 158/297/6 167/298/6 159/299/6
f 159/299/6 167/298/6 165/300/6
f 159/299/6 165/300/6 161/301/6
f 161/301/6 165/300/6 163/302/6
f 178/115/6 177/132/6 180/113/6
f 179/131/6 180/113/6 177/132/6
f 173/305/30 180/306/30 174/314/30
f 179/313/30 174/314/30 180/306/30
f 178/312/28 180/311/28 175/310/28
f 173/309/28 175/310/28 180/311/28
f 179/308/29 177/307/29 174/113/29
f 176/115/29 174/113/29 177/307/29
f 178/306/27 175/305/27 177/304/27
f 176/303/27 177/304/27 175/305/27
f 176/116/1 175/115/1 174/114/1
f 173/113/1 174/114/1 175/115/1
f 183/317/1 182/316/1 181/315/1
f 182/316/1 183/317/1 184/318/1
f 187/321/6 186/320/6 185/319/6
f 186/320/6 187/321/6 188/322/6
f 185/325/59 181/324/59 182/323/59
f 181/324/59 185/325/59 186/326/59
f 183/329/60 187/328/60 184/327/60
f 187/328/60 183/329/60 188/330/60
f 187/333/61 182/332/61 184/331/61
f 182/332/61 187/333/61 185/334/61
f 186/337/62 183/336/62 181/335/62
f 183/336/62 186/337/62 188/338/62
f 191/317/1 190/316/1 189/315/1
f 190/316/1 191/317/1 192/318/1
f 195/321/6 194/320/6 193/319/6
f 194/320/6 195/321/6 196/322/6
f 193/325/59 189/324/59 190/323/59
f 189/324/59 193/325/59 194/326/59
f 191/329/60 195/328/60 192/327/60
f 195/328/60 191/329/60 196/330/60
f 195/333/61 190/332/61 192/331/61
f 190/332/61 195/333/61 193/334/61
f 194/337/62 191/336/62 189/335/62
f 191/336/62 194/337/62 196/338/62

