# MagicaVoxel @ Ephtracy

# group
o 

# material
mtllib Greeble2.mtl
usemtl palette

# normals
vn -1 0 0
vn 1 0 0
vn 0 0 1
vn 0 0 -1
vn 0 -1 0
vn 0 1 0

# texcoords
vt 0.400391 0.5
vt 0.404297 0.5
vt 0.408203 0.5
vt 0.548828 0.5
vt 0.978516 0.5
vt 0.982422 0.5

# verts
v 0 2 -0.9
v 0 2 -1
v 0 6 -0.9
v 0 6 -1
v 0.1 2.5 -0.8
v 0.1 2.5 -0.9
v 0.1 6 -0.8
v 0.1 6 -0.9
v 0.3 2 -0.8
v 0.3 2 -0.9
v 0.3 2.3 -0.8
v 0.3 2.3 -0.9
v 0.5 2.8 -0.8
v 0.5 2.8 -0.9
v 0.5 5.2 -0.8
v 0.5 5.2 -0.9
v 0.6 2.8 -0.7
v 0.6 2.8 -0.8
v 0.6 5.2 -0.7
v 0.6 5.2 -0.8
v 0.8 5.3 -0.9
v 0.8 5.3 -1
v 0.8 5.5 -0.8
v 0.8 5.5 -0.9
v 0.8 5.6 -0.7
v 0.8 5.6 -0.8
v 0.8 5.6 -0.9
v 0.8 5.7 -0.7
v 0.8 5.7 -0.8
v 0.8 5.7 -0.9
v 0.8 5.8 -0.9
v 0.8 5.8 -1
v 1 2.7 -0.7
v 1 2.7 -0.9
v 1 3.3 -0.7
v 1 3.3 -0.9
v 1.1 3.8 -0.7
v 1.1 3.8 -0.9
v 1.1 4.4 -0.7
v 1.1 4.4 -0.9
v 1.1 4.6 -0.7
v 1.1 4.6 -0.9
v 1.1 5.3 -0.7
v 1.1 5.3 -0.9
v 1.3 2.5 -0.8
v 1.3 2.5 -0.9
v 1.3 2.6 -0.8
v 1.3 2.6 -0.9
v 1.4 2.5 -0.7
v 1.4 2.5 -0.8
v 1.4 2.6 -0.8
v 1.4 2.6 -0.9
v 1.4 3.5 -0.6
v 1.4 3.5 -0.7
v 1.4 5.2 -0.6
v 1.4 5.2 -0.7
v 1.4 5.2 -0.9
v 1.5 2.6 -0.9
v 1.5 2.6 -1
v 1.5 2.8 -0.9
v 1.5 2.8 -1
v 1.5 3.2 -0.9
v 1.5 3.2 -1
v 1.5 5.2 -0.9
v 1.5 5.2 -1
v 2.1 5.1 -0.8
v 2.1 5.1 -0.9
v 2.1 5.2 -0.8
v 2.1 5.2 -0.9
v 2.2 2.5 -0.8
v 2.2 2.5 -0.9
v 2.2 2.7 -0.9
v 2.2 2.7 -1
v 2.2 3.6 -0.9
v 2.2 3.6 -1
v 2.2 4.8 -0.8
v 2.2 4.8 -0.9
v 2.3 2.6 -0.7
v 2.3 2.6 -0.8
v 2.3 4.8 -0.7
v 2.3 4.8 -0.8
v 2.9 2.4 -0.8
v 2.9 2.4 -0.9
v 2.9 4.8 -0.8
v 2.9 4.8 -0.9
v 3 2.6 -0.7
v 3 2.6 -0.8
v 3 4.8 -0.7
v 3 4.8 -0.8
v 3.5 3 -0.8
v 3.5 3 -0.9
v 3.5 4.9 -0.8
v 3.5 4.9 -0.9
v 3.7 4.9 -0.9
v 3.7 4.9 -1
v 3.7 5.5 -0.9
v 3.7 5.5 -1
v 0.3 2.5 -0.8
v 0.3 2.5 -0.9
v 0.3 5.3 -0.9
v 0.3 5.3 -1
v 0.3 5.8 -0.9
v 0.3 5.8 -1
v 0.3 6 -0.8
v 0.3 6 -0.9
v 0.8 2.8 -0.7
v 0.8 2.8 -0.8
v 0.8 5.2 -0.7
v 0.8 5.2 -0.8
v 0.9 2.8 -0.8
v 0.9 2.8 -0.9
v 0.9 5.2 -0.8
v 0.9 5.2 -0.9
v 1.2 2 -0.8
v 1.2 2 -0.9
v 1.2 2.3 -0.8
v 1.2 2.3 -0.9
v 1.2 2.7 -0.7
v 1.2 2.7 -0.9
v 1.2 3.3 -0.7
v 1.2 3.3 -0.9
v 1.2 3.8 -0.7
v 1.2 3.8 -0.9
v 1.2 4.4 -0.7
v 1.2 4.4 -0.9
v 1.2 4.6 -0.7
v 1.2 4.6 -0.9
v 1.2 5.3 -0.7
v 1.2 5.3 -0.9
v 1.4 2.6 -0.9
v 1.4 2.6 -1
v 1.4 5.2 -0.9
v 1.4 5.2 -1
v 1.6 3.5 -0.6
v 1.6 3.5 -0.7
v 1.6 5.2 -0.6
v 1.6 5.2 -0.7
v 1.7 2.5 -0.7
v 1.7 2.5 -0.9
v 1.7 2.7 -0.9
v 1.7 2.7 -1
v 1.7 2.8 -0.9
v 1.7 2.8 -1
v 1.7 3.2 -0.9
v 1.7 3.2 -1
v 1.7 3.6 -0.9
v 1.7 3.6 -1
v 1.7 5.2 -0.7
v 1.7 5.2 -0.9
v 2.4 2.5 -0.8
v 2.4 2.5 -0.9
v 2.4 2.6 -0.7
v 2.4 2.6 -0.8
v 2.4 4.8 -0.7
v 2.4 4.8 -0.8
v 2.4 4.8 -0.9
v 2.9 5.5 -0.8
v 2.9 5.5 -0.9
v 2.9 5.6 -0.7
v 2.9 5.6 -0.8
v 2.9 5.6 -0.9
v 2.9 5.7 -0.7
v 2.9 5.7 -0.8
v 3.1 2.4 -0.8
v 3.1 2.4 -0.9
v 3.1 2.6 -0.7
v 3.1 2.6 -0.8
v 3.1 4.8 -0.7
v 3.1 4.8 -0.8
v 3.1 4.8 -0.9
v 3.1 4.9 -0.9
v 3.1 4.9 -1
v 3.1 5.1 -0.9
v 3.1 5.1 -1
v 3.1 5.2 -0.9
v 3.1 5.2 -1
v 3.1 5.5 -0.9
v 3.1 5.5 -1
v 3.2 5.1 -0.9
v 3.2 5.1 -1
v 3.2 5.2 -0.9
v 3.2 5.2 -1
v 3.5 5.1 -0.8
v 3.5 5.1 -0.9
v 3.5 5.2 -0.8
v 3.5 5.2 -0.9
v 3.7 3 -0.8
v 3.7 3 -0.9
v 3.7 4.9 -0.8
v 3.7 4.9 -0.9
v 4 2 -0.9
v 4 2 -1
v 4 5.6 -0.8
v 4 5.6 -0.9
v 4 5.7 -0.8
v 4 5.7 -0.9
v 4 6 -0.9
v 4 6 -1
v 1.4 3.5 -0.6
v 1.4 5.2 -0.6
v 1.6 3.5 -0.6
v 1.6 5.2 -0.6
v 0.6 2.8 -0.7
v 0.6 5.2 -0.7
v 0.8 2.8 -0.7
v 0.8 5.2 -0.7
v 0.8 5.6 -0.7
v 0.8 5.7 -0.7
v 1 2.7 -0.7
v 1 3.3 -0.7
v 1.1 3.8 -0.7
v 1.1 4.4 -0.7
v 1.1 4.6 -0.7
v 1.1 5.3 -0.7
v 1.2 2.7 -0.7
v 1.2 3.3 -0.7
v 1.2 3.8 -0.7
v 1.2 4.4 -0.7
v 1.2 4.6 -0.7
v 1.2 5.3 -0.7
v 1.4 2.5 -0.7
v 1.4 3.5 -0.7
v 1.6 3.5 -0.7
v 1.6 5.2 -0.7
v 1.7 2.5 -0.7
v 1.7 5.2 -0.7
v 2.3 2.6 -0.7
v 2.3 4.8 -0.7
v 2.4 2.6 -0.7
v 2.4 4.8 -0.7
v 2.9 5.6 -0.7
v 2.9 5.7 -0.7
v 3 2.6 -0.7
v 3 4.8 -0.7
v 3.1 2.6 -0.7
v 3.1 4.8 -0.7
v 0.1 2.5 -0.8
v 0.1 6 -0.8
v 0.3 2 -0.8
v 0.3 2.3 -0.8
v 0.3 2.5 -0.8
v 0.3 6 -0.8
v 0.5 2.8 -0.8
v 0.5 5.2 -0.8
v 0.6 2.8 -0.8
v 0.6 5.2 -0.8
v 0.8 2.8 -0.8
v 0.8 5.2 -0.8
v 0.8 5.5 -0.8
v 0.8 5.6 -0.8
v 0.9 2.8 -0.8
v 0.9 5.2 -0.8
v 1.2 2 -0.8
v 1.2 2.3 -0.8
v 1.3 2.5 -0.8
v 1.3 2.6 -0.8
v 1.4 2.5 -0.8
v 1.4 2.6 -0.8
v 2.1 5.1 -0.8
v 2.1 5.2 -0.8
v 2.2 2.5 -0.8
v 2.2 4.8 -0.8
v 2.3 2.6 -0.8
v 2.3 4.8 -0.8
v 2.4 2.5 -0.8
v 2.4 2.6 -0.8
v 2.9 2.4 -0.8
v 2.9 4.8 -0.8
v 2.9 5.5 -0.8
v 2.9 5.6 -0.8
v 2.9 5.7 -0.8
v 3 2.6 -0.8
v 3 4.8 -0.8
v 3.1 2.4 -0.8
v 3.1 2.6 -0.8
v 3.5 3 -0.8
v 3.5 4.9 -0.8
v 3.5 5.1 -0.8
v 3.5 5.2 -0.8
v 3.6 3 -0.8
v 3.6 4.9 -0.8
v 3.7 3 -0.8
v 3.7 4.9 -0.8
v 4 5.6 -0.8
v 4 5.7 -0.8
v 0 2 -0.9
v 0 6 -0.9
v 0.1 2.5 -0.9
v 0.1 6 -0.9
v 0.3 2 -0.9
v 0.3 2.3 -0.9
v 0.3 2.5 -0.9
v 0.3 5.3 -0.9
v 0.3 5.8 -0.9
v 0.3 6 -0.9
v 0.5 2.8 -0.9
v 0.5 5.2 -0.9
v 0.8 5.3 -0.9
v 0.8 5.5 -0.9
v 0.8 5.7 -0.9
v 0.8 5.8 -0.9
v 0.9 2.8 -0.9
v 0.9 5.2 -0.9
v 1 2.7 -0.9
v 1 3.3 -0.9
v 1.1 3.8 -0.9
v 1.1 4.4 -0.9
v 1.1 4.6 -0.9
v 1.1 5.3 -0.9
v 1.2 2 -0.9
v 1.2 2.3 -0.9
v 1.2 2.7 -0.9
v 1.2 3.3 -0.9
v 1.2 3.8 -0.9
v 1.2 4.4 -0.9
v 1.2 4.6 -0.9
v 1.2 5.3 -0.9
v 1.3 2.5 -0.9
v 1.3 2.6 -0.9
v 1.4 2.6 -0.9
v 1.4 5.2 -0.9
v 1.7 2.5 -0.9
v 1.7 2.7 -0.9
v 1.7 3.6 -0.9
v 1.7 5.2 -0.9
v 2.1 5.1 -0.9
v 2.1 5.2 -0.9
v 2.2 2.5 -0.9
v 2.2 2.7 -0.9
v 2.2 3.6 -0.9
v 2.2 4.8 -0.9
v 2.4 2.5 -0.9
v 2.4 4.8 -0.9
v 2.9 2.4 -0.9
v 2.9 4.8 -0.9
v 2.9 5.5 -0.9
v 2.9 5.6 -0.9
v 3.1 2.4 -0.9
v 3.1 4.8 -0.9
v 3.1 4.9 -0.9
v 3.1 5.1 -0.9
v 3.1 5.2 -0.9
v 3.1 5.5 -0.9
v 3.5 3 -0.9
v 3.5 4.9 -0.9
v 3.6 3 -0.9
v 3.7 3 -0.9
v 3.7 4.9 -0.9
v 3.7 5.5 -0.9
v 4 2 -0.9
v 4 5.6 -0.9
v 4 5.7 -0.9
v 4 6 -0.9
v 1.4 2.6 -0.9
v 1.4 5.2 -0.9
v 1.5 2.6 -0.9
v 1.5 2.8 -0.9
v 1.5 3.2 -0.9
v 1.5 5.2 -0.9
v 1.7 2.8 -0.9
v 1.7 3.2 -0.9
v 3.2 5.1 -0.9
v 3.2 5.2 -0.9
v 3.5 5.1 -0.9
v 3.5 5.2 -0.9
v 0 2 -1
v 0 6 -1
v 0.3 5.3 -1
v 0.3 5.8 -1
v 0.8 5.3 -1
v 0.8 5.8 -1
v 1.4 2.6 -1
v 1.4 5.2 -1
v 1.5 2.6 -1
v 1.5 2.8 -1
v 1.5 3.2 -1
v 1.5 5.2 -1
v 1.7 2.7 -1
v 1.7 2.8 -1
v 1.7 3.2 -1
v 1.7 3.6 -1
v 2.2 2.7 -1
v 2.2 3.6 -1
v 3.1 4.9 -1
v 3.1 5.1 -1
v 3.1 5.2 -1
v 3.1 5.5 -1
v 3.2 5.1 -1
v 3.2 5.2 -1
v 3.7 4.9 -1
v 3.7 5.5 -1
v 4 2 -1
v 4 6 -1
v 0.3 2 -0.8
v 1.2 2 -0.8
v 0 2 -0.9
v 0.3 2 -0.9
v 1.2 2 -0.9
v 4 2 -0.9
v 0 2 -1
v 4 2 -1
v 2.9 2.4 -0.8
v 3.1 2.4 -0.8
v 2.9 2.4 -0.9
v 3.1 2.4 -0.9
v 1.4 2.5 -0.7
v 1.7 2.5 -0.7
v 0.1 2.5 -0.8
v 0.3 2.5 -0.8
v 1.3 2.5 -0.8
v 1.4 2.5 -0.8
v 2.2 2.5 -0.8
v 2.4 2.5 -0.8
v 0.1 2.5 -0.9
v 0.3 2.5 -0.9
v 1.3 2.5 -0.9
v 1.7 2.5 -0.9
v 2.2 2.5 -0.9
v 2.4 2.5 -0.9
v 2.3 2.6 -0.7
v 2.4 2.6 -0.7
v 3 2.6 -0.7
v 3.1 2.6 -0.7
v 2.3 2.6 -0.8
v 2.4 2.6 -0.8
v 3 2.6 -0.8
v 3.1 2.6 -0.8
v 1 2.7 -0.7
v 1.2 2.7 -0.7
v 1 2.7 -0.9
v 1.2 2.7 -0.9
v 0.6 2.8 -0.7
v 0.8 2.8 -0.7
v 0.5 2.8 -0.8
v 0.6 2.8 -0.8
v 0.8 2.8 -0.8
v 0.9 2.8 -0.8
v 0.5 2.8 -0.9
v 0.9 2.8 -0.9
v 3.5 3 -0.8
v 3.6 3 -0.8
v 3.7 3 -0.8
v 3.5 3 -0.9
v 3.6 3 -0.9
v 3.7 3 -0.9
v 1.5 3.2 -0.9
v 1.7 3.2 -0.9
v 1.5 3.2 -1
v 1.7 3.2 -1
v 1.4 3.5 -0.6
v 1.6 3.5 -0.6
v 1.4 3.5 -0.7
v 1.6 3.5 -0.7
v 1.7 3.6 -0.9
v 2.2 3.6 -0.9
v 1.7 3.6 -1
v 2.2 3.6 -1
v 1.1 3.8 -0.7
v 1.2 3.8 -0.7
v 1.1 3.8 -0.9
v 1.2 3.8 -0.9
v 1.1 4.6 -0.7
v 1.2 4.6 -0.7
v 1.1 4.6 -0.9
v 1.2 4.6 -0.9
v 2.1 5.1 -0.8
v 3.5 5.1 -0.8
v 2.1 5.1 -0.9
v 3.1 5.1 -0.9
v 3.2 5.1 -0.9
v 3.5 5.1 -0.9
v 3.1 5.1 -1
v 3.2 5.1 -1
v 1.4 5.2 -0.9
v 1.5 5.2 -0.9
v 1.4 5.2 -1
v 1.5 5.2 -1
v 0.8 5.5 -0.8
v 2.9 5.5 -0.8
v 0.8 5.5 -0.9
v 2.9 5.5 -0.9
v 3.1 5.5 -0.9
v 3.7 5.5 -0.9
v 3.1 5.5 -1
v 3.7 5.5 -1
v 0.8 5.6 -0.7
v 2.9 5.6 -0.7
v 0.8 5.6 -0.8
v 2.9 5.6 -0.8
v 4 5.6 -0.8
v 2.9 5.6 -0.9
v 4 5.6 -0.9
v 0.3 5.8 -0.9
v 0.8 5.8 -0.9
v 0.3 5.8 -1
v 0.8 5.8 -1
v 0.3 2.3 -0.8
v 1.2 2.3 -0.8
v 0.3 2.3 -0.9
v 1.2 2.3 -0.9
v 1.3 2.6 -0.8
v 1.4 2.6 -0.8
v 1.3 2.6 -0.9
v 1.4 2.6 -0.9
v 1.5 2.6 -0.9
v 1.4 2.6 -1
v 1.5 2.6 -1
v 1.7 2.7 -0.9
v 2.2 2.7 -0.9
v 1.7 2.7 -1
v 2.2 2.7 -1
v 1.5 2.8 -0.9
v 1.7 2.8 -0.9
v 1.5 2.8 -1
v 1.7 2.8 -1
v 1 3.3 -0.7
v 1.2 3.3 -0.7
v 1 3.3 -0.9
v 1.2 3.3 -0.9
v 1.1 4.4 -0.7
v 1.2 4.4 -0.7
v 1.1 4.4 -0.9
v 1.2 4.4 -0.9
v 2.3 4.8 -0.7
v 2.4 4.8 -0.7
v 3 4.8 -0.7
v 3.1 4.8 -0.7
v 2.2 4.8 -0.8
v 2.3 4.8 -0.8
v 2.4 4.8 -0.8
v 2.9 4.8 -0.8
v 3 4.8 -0.8
v 3.1 4.8 -0.8
v 2.2 4.8 -0.9
v 2.4 4.8 -0.9
v 2.9 4.8 -0.9
v 3.1 4.8 -0.9
v 3.5 4.9 -0.8
v 3.6 4.9 -0.8
v 3.7 4.9 -0.8
v 3.1 4.9 -0.9
v 3.5 4.9 -0.9
v 3.6 4.9 -0.9
v 3.7 4.9 -0.9
v 3.1 4.9 -1
v 3.7 4.9 -1
v 1.4 5.2 -0.6
v 1.6 5.2 -0.6
v 0.6 5.2 -0.7
v 0.8 5.2 -0.7
v 1.4 5.2 -0.7
v 1.6 5.2 -0.7
v 1.7 5.2 -0.7
v 0.5 5.2 -0.8
v 0.6 5.2 -0.8
v 0.8 5.2 -0.8
v 0.9 5.2 -0.8
v 2.1 5.2 -0.8
v 3.5 5.2 -0.8
v 0.5 5.2 -0.9
v 0.9 5.2 -0.9
v 1.4 5.2 -0.9
v 1.7 5.2 -0.9
v 2.1 5.2 -0.9
v 3.1 5.2 -0.9
v 3.2 5.2 -0.9
v 3.5 5.2 -0.9
v 3.1 5.2 -1
v 3.2 5.2 -1
v 1.1 5.3 -0.7
v 1.2 5.3 -0.7
v 0.3 5.3 -0.9
v 0.8 5.3 -0.9
v 1.1 5.3 -0.9
v 1.2 5.3 -0.9
v 0.3 5.3 -1
v 0.8 5.3 -1
v 0.8 5.7 -0.7
v 2.9 5.7 -0.7
v 0.8 5.7 -0.8
v 2.9 5.7 -0.8
v 4 5.7 -0.8
v 0.8 5.7 -0.9
v 4 5.7 -0.9
v 0.1 6 -0.8
v 0.3 6 -0.8
v 0 6 -0.9
v 0.1 6 -0.9
v 0.3 6 -0.9
v 4 6 -0.9
v 0 6 -1
v 4 6 -1

# faces
f 3/4/1 2/4/1 1/4/1
f 4/4/1 2/4/1 3/4/1
f 7/6/1 6/6/1 5/6/1
f 8/6/1 6/6/1 7/6/1
f 11/4/1 10/4/1 9/4/1
f 12/4/1 10/4/1 11/4/1
f 15/4/1 14/4/1 13/4/1
f 16/4/1 14/4/1 15/4/1
f 19/3/1 18/3/1 17/3/1
f 20/3/1 18/3/1 19/3/1
f 24/4/1 22/4/1 21/4/1
f 26/4/1 24/4/1 23/4/1
f 27/4/1 22/4/1 24/4/1
f 27/4/1 24/4/1 26/4/1
f 28/4/1 26/4/1 25/4/1
f 29/1/1 27/1/1 26/1/1
f 29/4/1 26/4/1 28/4/1
f 30/4/1 22/4/1 27/4/1
f 30/1/1 27/1/1 29/1/1
f 31/4/1 22/4/1 30/4/1
f 32/4/1 22/4/1 31/4/1
f 35/3/1 34/3/1 33/3/1
f 36/3/1 34/3/1 35/3/1
f 39/3/1 38/3/1 37/3/1
f 40/3/1 38/3/1 39/3/1
f 43/3/1 42/3/1 41/3/1
f 44/3/1 42/3/1 43/3/1
f 47/4/1 46/4/1 45/4/1
f 48/4/1 46/4/1 47/4/1
f 51/4/1 50/4/1 49/4/1
f 54/4/1 51/4/1 49/4/1
f 54/4/1 52/4/1 51/4/1
f 55/3/1 54/3/1 53/3/1
f 56/4/1 52/4/1 54/4/1
f 56/3/1 54/3/1 55/3/1
f 57/4/1 52/4/1 56/4/1
f 60/4/1 59/4/1 58/4/1
f 61/4/1 59/4/1 60/4/1
f 64/4/1 63/4/1 62/4/1
f 65/4/1 63/4/1 64/4/1
f 68/1/1 67/1/1 66/1/1
f 69/1/1 67/1/1 68/1/1
f 72/1/1 71/1/1 70/1/1
f 74/1/1 72/1/1 70/1/1
f 74/4/1 73/4/1 72/4/1
f 75/4/1 73/4/1 74/4/1
f 76/1/1 74/1/1 70/1/1
f 77/1/1 74/1/1 76/1/1
f 80/2/1 79/2/1 78/2/1
f 81/2/1 79/2/1 80/2/1
f 84/1/1 83/1/1 82/1/1
f 85/1/1 83/1/1 84/1/1
f 88/2/1 87/2/1 86/2/1
f 89/2/1 87/2/1 88/2/1
f 92/5/1 91/5/1 90/5/1
f 93/5/1 91/5/1 92/5/1
f 96/4/1 95/4/1 94/4/1
f 97/4/1 95/4/1 96/4/1
f 98/6/2 99/6/2 100/6/2
f 98/6/2 100/6/2 102/6/2
f 100/4/2 101/4/2 102/4/2
f 102/4/2 101/4/2 103/4/2
f 98/6/2 102/6/2 104/6/2
f 104/6/2 102/6/2 105/6/2
f 106/3/2 107/3/2 108/3/2
f 108/3/2 107/3/2 109/3/2
f 110/4/2 111/4/2 112/4/2
f 112/4/2 111/4/2 113/4/2
f 114/4/2 115/4/2 116/4/2
f 116/4/2 115/4/2 117/4/2
f 118/3/2 119/3/2 120/3/2
f 120/3/2 119/3/2 121/3/2
f 122/3/2 123/3/2 124/3/2
f 124/3/2 123/3/2 125/3/2
f 126/3/2 127/3/2 128/3/2
f 128/3/2 127/3/2 129/3/2
f 130/4/2 131/4/2 132/4/2
f 132/4/2 131/4/2 133/4/2
f 134/3/2 135/3/2 136/3/2
f 136/3/2 135/3/2 137/3/2
f 138/4/2 139/4/2 140/4/2
f 138/4/2 140/4/2 142/4/2
f 140/4/2 141/4/2 142/4/2
f 142/4/2 141/4/2 143/4/2
f 138/4/2 142/4/2 144/4/2
f 138/4/2 144/4/2 146/4/2
f 144/4/2 145/4/2 146/4/2
f 146/4/2 145/4/2 147/4/2
f 138/4/2 146/4/2 148/4/2
f 148/4/2 146/4/2 149/4/2
f 150/1/2 151/1/2 153/1/2
f 152/2/2 153/2/2 154/2/2
f 153/1/2 151/1/2 155/1/2
f 154/2/2 153/2/2 155/2/2
f 155/1/2 151/1/2 156/1/2
f 157/4/2 158/4/2 160/4/2
f 160/4/2 158/4/2 161/4/2
f 159/4/2 160/4/2 162/4/2
f 162/4/2 160/4/2 163/4/2
f 164/1/2 165/1/2 167/1/2
f 166/2/2 167/2/2 168/2/2
f 167/1/2 165/1/2 169/1/2
f 168/2/2 167/2/2 169/2/2
f 169/1/2 165/1/2 170/1/2
f 171/4/2 172/4/2 173/4/2
f 173/4/2 172/4/2 174/4/2
f 175/4/2 176/4/2 177/4/2
f 177/4/2 176/4/2 178/4/2
f 179/4/2 180/4/2 181/4/2
f 181/4/2 180/4/2 182/4/2
f 183/1/2 184/1/2 185/1/2
f 185/1/2 184/1/2 186/1/2
f 187/1/2 188/1/2 189/1/2
f 189/1/2 188/1/2 190/1/2
f 191/4/2 192/4/2 194/4/2
f 193/1/2 194/1/2 195/1/2
f 194/4/2 192/4/2 196/4/2
f 195/1/2 194/1/2 196/1/2
f 196/4/2 192/4/2 197/4/2
f 197/4/2 192/4/2 198/4/2
f 201/3/3 200/3/3 199/3/3
f 202/3/3 200/3/3 201/3/3
f 205/3/3 204/3/3 203/3/3
f 206/3/3 204/3/3 205/3/3
f 215/3/3 210/3/3 209/3/3
f 216/3/3 210/3/3 215/3/3
f 217/3/3 212/3/3 211/3/3
f 218/3/3 212/3/3 217/3/3
f 219/3/3 214/3/3 213/3/3
f 220/3/3 214/3/3 219/3/3
f 223/4/3 222/4/3 221/4/3
f 225/4/3 223/4/3 221/4/3
f 225/4/3 224/4/3 223/4/3
f 226/4/3 224/4/3 225/4/3
f 229/2/3 228/2/3 227/2/3
f 230/2/3 228/2/3 229/2/3
f 231/4/3 208/4/3 207/4/3
f 232/4/3 208/4/3 231/4/3
f 235/2/3 234/2/3 233/2/3
f 236/2/3 234/2/3 235/2/3
f 241/6/3 238/6/3 237/6/3
f 242/6/3 238/6/3 241/6/3
f 245/4/3 244/4/3 243/4/3
f 246/4/3 244/4/3 245/4/3
f 251/4/3 248/4/3 247/4/3
f 252/4/3 248/4/3 251/4/3
f 253/4/3 240/4/3 239/4/3
f 254/4/3 240/4/3 253/4/3
f 257/4/3 256/4/3 255/4/3
f 258/4/3 256/4/3 257/4/3
f 263/1/3 262/1/3 261/1/3
f 264/1/3 262/1/3 263/1/3
f 265/1/3 263/1/3 261/1/3
f 266/1/3 263/1/3 265/1/3
f 269/4/3 250/4/3 249/4/3
f 270/4/3 250/4/3 269/4/3
f 272/1/3 268/1/3 267/1/3
f 273/1/3 268/1/3 272/1/3
f 274/1/3 272/1/3 267/1/3
f 275/1/3 272/1/3 274/1/3
f 278/1/3 260/1/3 259/1/3
f 279/1/3 260/1/3 278/1/3
f 280/5/3 277/5/3 276/5/3
f 281/5/3 277/5/3 280/5/3
f 282/1/3 281/1/3 280/1/3
f 283/1/3 281/1/3 282/1/3
f 284/1/3 271/1/3 270/1/3
f 285/1/3 271/1/3 284/1/3
f 288/4/3 287/4/3 286/4/3
f 289/4/3 287/4/3 288/4/3
f 290/4/3 288/4/3 286/4/3
f 291/4/3 288/4/3 290/4/3
f 292/4/3 288/4/3 291/4/3
f 296/4/3 292/4/3 291/4/3
f 296/4/3 293/4/3 292/4/3
f 297/4/3 293/4/3 296/4/3
f 298/4/3 293/4/3 297/4/3
f 301/4/3 295/4/3 294/4/3
f 302/4/3 296/4/3 291/4/3
f 303/4/3 299/4/3 298/4/3
f 303/4/3 298/4/3 297/4/3
f 304/4/3 302/4/3 291/4/3
f 304/4/3 303/4/3 302/4/3
f 305/4/3 303/4/3 304/4/3
f 306/4/3 303/4/3 305/4/3
f 307/4/3 303/4/3 306/4/3
f 308/4/3 303/4/3 307/4/3
f 309/4/3 299/4/3 303/4/3
f 309/4/3 303/4/3 308/4/3
f 311/4/3 304/4/3 291/4/3
f 312/4/3 304/4/3 311/4/3
f 313/4/3 306/4/3 305/4/3
f 314/4/3 306/4/3 313/4/3
f 315/4/3 308/4/3 307/4/3
f 316/4/3 308/4/3 315/4/3
f 317/4/3 299/4/3 309/4/3
f 318/4/3 314/4/3 313/4/3
f 318/4/3 317/4/3 316/4/3
f 318/4/3 316/4/3 315/4/3
f 318/4/3 312/4/3 311/4/3
f 318/4/3 315/4/3 314/4/3
f 318/4/3 311/4/3 310/4/3
f 318/4/3 313/4/3 312/4/3
f 319/4/3 317/4/3 318/4/3
f 320/4/3 317/4/3 319/4/3
f 321/4/3 317/4/3 320/4/3
f 322/4/3 318/4/3 310/4/3
f 325/4/3 317/4/3 321/4/3
f 326/4/3 325/4/3 324/4/3
f 327/4/3 317/4/3 325/4/3
f 327/4/3 325/4/3 326/4/3
f 328/4/3 323/4/3 322/4/3
f 328/4/3 322/4/3 310/4/3
f 329/4/3 323/4/3 328/4/3
f 330/4/3 326/4/3 324/4/3
f 331/4/3 326/4/3 330/4/3
f 332/4/3 328/4/3 310/4/3
f 333/4/3 326/4/3 331/4/3
f 334/4/3 332/4/3 310/4/3
f 334/4/3 333/4/3 332/4/3
f 335/4/3 326/4/3 333/4/3
f 335/4/3 333/4/3 334/4/3
f 336/4/3 299/4/3 317/4/3
f 336/4/3 317/4/3 327/4/3
f 338/4/3 334/4/3 310/4/3
f 339/4/3 326/4/3 335/4/3
f 340/4/3 326/4/3 339/4/3
f 341/4/3 326/4/3 340/4/3
f 342/4/3 337/4/3 336/4/3
f 342/4/3 336/4/3 327/4/3
f 343/4/3 337/4/3 342/4/3
f 344/4/3 340/4/3 339/4/3
f 344/4/3 339/4/3 338/4/3
f 345/4/3 340/4/3 344/4/3
f 346/4/3 344/4/3 338/4/3
f 347/4/3 346/4/3 338/4/3
f 349/4/3 337/4/3 343/4/3
f 350/4/3 338/4/3 310/4/3
f 350/4/3 349/4/3 348/4/3
f 350/4/3 348/4/3 347/4/3
f 350/4/3 347/4/3 338/4/3
f 351/4/3 337/4/3 349/4/3
f 351/4/3 349/4/3 350/4/3
f 352/4/3 301/4/3 300/4/3
f 353/4/3 295/4/3 301/4/3
f 353/4/3 301/4/3 352/4/3
f 354/4/4 355/4/4 356/4/4
f 356/4/4 355/4/4 357/4/4
f 357/4/4 355/4/4 358/4/4
f 358/4/4 355/4/4 359/4/4
f 357/4/4 358/4/4 360/4/4
f 360/4/4 358/4/4 361/4/4
f 362/1/4 363/1/4 364/1/4
f 364/1/4 363/1/4 365/1/4
f 366/4/4 367/4/4 368/4/4
f 368/4/4 367/4/4 369/4/4
f 366/4/4 368/4/4 370/4/4
f 369/4/4 367/4/4 371/4/4
f 366/4/4 370/4/4 372/4/4
f 370/4/4 371/4/4 372/4/4
f 372/4/4 371/4/4 373/4/4
f 366/4/4 372/4/4 374/4/4
f 373/4/4 371/4/4 377/4/4
f 374/4/4 375/4/4 378/4/4
f 378/4/4 375/4/4 379/4/4
f 376/4/4 377/4/4 380/4/4
f 380/4/4 377/4/4 381/4/4
f 374/4/4 378/4/4 382/4/4
f 381/4/4 377/4/4 383/4/4
f 383/4/4 377/4/4 384/4/4
f 382/4/4 383/4/4 384/4/4
f 384/4/4 377/4/4 385/4/4
f 377/4/4 371/4/4 386/4/4
f 385/4/4 377/4/4 386/4/4
f 386/4/4 371/4/4 387/4/4
f 385/4/4 386/4/4 388/4/4
f 388/4/4 386/4/4 389/4/4
f 382/4/4 384/4/4 390/4/4
f 387/4/4 371/4/4 391/4/4
f 374/4/4 382/4/4 392/4/4
f 390/4/4 391/4/4 392/4/4
f 366/4/4 374/4/4 392/4/4
f 382/4/4 390/4/4 392/4/4
f 371/4/4 367/4/4 393/4/4
f 392/4/4 391/4/4 393/4/4
f 391/4/4 371/4/4 393/4/4
f 397/4/5 395/4/5 394/4/5
f 398/4/5 395/4/5 397/4/5
f 400/4/5 397/4/5 396/4/5
f 400/4/5 399/4/5 398/4/5
f 400/4/5 398/4/5 397/4/5
f 401/4/5 399/4/5 400/4/5
f 404/1/5 403/1/5 402/1/5
f 405/1/5 403/1/5 404/1/5
f 411/4/5 407/4/5 406/4/5
f 414/6/5 409/6/5 408/6/5
f 415/6/5 409/6/5 414/6/5
f 416/4/5 411/4/5 410/4/5
f 417/4/5 407/4/5 411/4/5
f 417/4/5 411/4/5 416/4/5
f 418/1/5 413/1/5 412/1/5
f 419/1/5 413/1/5 418/1/5
f 424/2/5 421/2/5 420/2/5
f 425/2/5 421/2/5 424/2/5
f 426/2/5 423/2/5 422/2/5
f 427/2/5 423/2/5 426/2/5
f 430/3/5 429/3/5 428/3/5
f 431/3/5 429/3/5 430/3/5
f 435/3/5 433/3/5 432/3/5
f 436/3/5 433/3/5 435/3/5
f 438/4/5 435/4/5 434/4/5
f 438/4/5 437/4/5 436/4/5
f 438/4/5 436/4/5 435/4/5
f 439/4/5 437/4/5 438/4/5
f 443/5/5 441/5/5 440/5/5
f 444/1/5 442/1/5 441/1/5
f 444/5/5 441/5/5 443/5/5
f 445/1/5 442/1/5 444/1/5
f 448/4/5 447/4/5 446/4/5
f 449/4/5 447/4/5 448/4/5
f 452/3/5 451/3/5 450/3/5
f 453/3/5 451/3/5 452/3/5
f 456/4/5 455/4/5 454/4/5
f 457/4/5 455/4/5 456/4/5
f 460/3/5 459/3/5 458/3/5
f 461/3/5 459/3/5 460/3/5
f 464/3/5 463/3/5 462/3/5
f 465/3/5 463/3/5 464/3/5
f 468/1/5 467/1/5 466/1/5
f 469/1/5 467/1/5 468/1/5
f 470/1/5 467/1/5 469/1/5
f 471/1/5 467/1/5 470/1/5
f 472/4/5 470/4/5 469/4/5
f 473/4/5 470/4/5 472/4/5
f 476/4/5 475/4/5 474/4/5
f 477/4/5 475/4/5 476/4/5
f 480/4/5 479/4/5 478/4/5
f 481/4/5 479/4/5 480/4/5
f 484/4/5 483/4/5 482/4/5
f 485/4/5 483/4/5 484/4/5
f 488/4/5 487/4/5 486/4/5
f 489/4/5 487/4/5 488/4/5
f 491/1/5 490/1/5 489/1/5
f 492/1/5 490/1/5 491/1/5
f 495/4/5 494/4/5 493/4/5
f 496/4/5 494/4/5 495/4/5
f 497/4/6 498/4/6 499/4/6
f 499/4/6 498/4/6 500/4/6
f 501/4/6 502/4/6 503/4/6
f 503/4/6 502/4/6 504/4/6
f 504/4/6 505/4/6 506/4/6
f 506/4/6 505/4/6 507/4/6
f 508/4/6 509/4/6 510/4/6
f 510/4/6 509/4/6 511/4/6
f 512/4/6 513/4/6 514/4/6
f 514/4/6 513/4/6 515/4/6
f 516/3/6 517/3/6 518/3/6
f 518/3/6 517/3/6 519/3/6
f 520/3/6 521/3/6 522/3/6
f 522/3/6 521/3/6 523/3/6
f 524/2/6 525/2/6 529/2/6
f 529/2/6 525/2/6 530/2/6
f 526/2/6 527/2/6 532/2/6
f 532/2/6 527/2/6 533/2/6
f 529/1/6 530/1/6 534/1/6
f 528/1/6 529/1/6 534/1/6
f 534/1/6 530/1/6 535/1/6
f 532/1/6 533/1/6 536/1/6
f 531/1/6 532/1/6 536/1/6
f 536/1/6 533/1/6 537/1/6
f 538/5/6 539/5/6 542/5/6
f 539/1/6 540/1/6 543/1/6
f 542/5/6 539/5/6 543/5/6
f 543/1/6 540/1/6 544/1/6
f 541/4/6 542/4/6 545/4/6
f 542/4/6 543/4/6 545/4/6
f 543/4/6 544/4/6 545/4/6
f 545/4/6 544/4/6 546/4/6
f 547/3/6 548/3/6 551/3/6
f 551/3/6 548/3/6 552/3/6
f 549/3/6 550/3/6 555/3/6
f 555/3/6 550/3/6 556/3/6
f 554/4/6 555/4/6 560/4/6
f 555/4/6 556/4/6 560/4/6
f 556/4/6 557/4/6 560/4/6
f 560/4/6 557/4/6 561/4/6
f 552/4/6 553/4/6 562/4/6
f 551/4/6 552/4/6 562/4/6
f 562/4/6 553/4/6 563/4/6
f 558/1/6 559/1/6 564/1/6
f 564/1/6 559/1/6 565/1/6
f 565/1/6 559/1/6 566/1/6
f 566/1/6 559/1/6 567/1/6
f 565/4/6 566/4/6 568/4/6
f 568/4/6 566/4/6 569/4/6
f 570/3/6 571/3/6 574/3/6
f 574/3/6 571/3/6 575/3/6
f 572/4/6 573/4/6 576/4/6
f 576/4/6 573/4/6 577/4/6
f 578/4/6 579/4/6 580/4/6
f 580/4/6 579/4/6 581/4/6
f 580/1/6 581/1/6 583/1/6
f 581/1/6 582/1/6 583/1/6
f 583/1/6 582/1/6 584/1/6
f 585/6/6 586/6/6 588/6/6
f 588/6/6 586/6/6 589/6/6
f 587/4/6 588/4/6 591/4/6
f 589/4/6 590/4/6 591/4/6
f 588/4/6 589/4/6 591/4/6
f 591/4/6 590/4/6 592/4/6
