# MagicaVoxel @ Ephtracy

# group
o 

# material
mtllib greebletest.mtl
usemtl palette

# normals
vn -1 0 0
vn 1 0 0
vn 0 0 1
vn 0 0 -1
vn 0 -1 0
vn 0 1 0

# texcoords
vt 0.974609 0.5
vt 0.978516 0.5
vt 0.982422 0.5
vt 0.986328 0.5

# verts
v 0 2 0
v 0 2 -12.6
v 0 2.1 0
v 0 2.1 -12.6
v 0.7 2.1 -0.1
v 0.7 2.1 -12.1
v 0.7 2.2 -0.1
v 0.7 2.2 -12.1
v 0.9 2.2 -11.5
v 0.9 2.2 -11.9
v 0.9 2.3 -11.5
v 0.9 2.3 -11.9
v 1.9 2.2 -8.2
v 1.9 2.2 -10.7
v 1.9 2.3 -8.2
v 1.9 2.3 -10.7
v 3.3 2 -3.8
v 3.3 2 -6.9
v 3.3 2.1 -3.8
v 3.3 2.1 -6.9
v 3.3 2.2 -3.8
v 3.3 2.2 -6.9
v 4.5 2.1 -3.3
v 4.5 2.1 -8.2
v 4.5 2.1 -10.7
v 4.5 2.1 -11.5
v 4.5 2.1 -11.9
v 4.5 2.1 -12.4
v 4.5 2.2 -3.3
v 4.5 2.2 -8.2
v 4.5 2.2 -10.7
v 4.5 2.2 -11.5
v 4.5 2.2 -11.9
v 4.5 2.2 -12.4
v 4.9 2.1 -1
v 4.9 2.1 -2.8
v 4.9 2.2 -1
v 4.9 2.2 -2.8
v 5.2 2.1 -0.2
v 5.2 2.1 -0.8
v 5.2 2.2 -0.2
v 5.2 2.2 -0.8
v 5.3 2.1 -1.8
v 5.3 2.1 -3
v 5.3 2.2 -1.8
v 5.3 2.2 -3
v 6 2.1 -1.8
v 6 2.1 -3
v 6 2.2 -1.8
v 6 2.2 -3
v 6.5 2.2 -5.8
v 6.5 2.2 -7
v 6.5 2.3 -5.8
v 6.5 2.3 -7
v 6.6 2.1 -0.8
v 6.6 2.1 -2.6
v 6.6 2.2 -0.8
v 6.6 2.2 -2.6
v 8.1 2.2 -4.6
v 8.1 2.2 -4.7
v 8.1 2.3 -4.6
v 8.1 2.3 -4.7
v 8.2 2.1 -0.9
v 8.2 2.1 -2.8
v 8.2 2.2 -0.9
v 8.2 2.2 -2.8
v 8.6 2.2 -1.7
v 8.6 2.2 -2.6
v 8.6 2.3 -1.7
v 8.6 2.3 -2.6
v 9.5 2.1 -0.8
v 9.5 2.1 -1.7
v 9.5 2.1 -2.6
v 9.5 2.1 -4.6
v 9.5 2.1 -4.7
v 9.5 2.1 -5.8
v 9.5 2.1 -7
v 9.5 2.1 -8.2
v 9.5 2.1 -10.7
v 9.5 2.1 -11.3
v 9.5 2.2 -0.8
v 9.5 2.2 -1.7
v 9.5 2.2 -2.6
v 9.5 2.2 -4.6
v 9.5 2.2 -4.7
v 9.5 2.2 -5.8
v 9.5 2.2 -7
v 9.5 2.2 -8.2
v 9.5 2.2 -10.7
v 9.5 2.2 -11.3
v 10.2 2.1 -1.1
v 10.2 2.1 -1.7
v 10.2 2.1 -2.6
v 10.2 2.1 -3
v 10.2 2.1 -3.5
v 10.2 2.1 -4.6
v 10.2 2.1 -4.7
v 10.2 2.1 -5.8
v 10.2 2.1 -7
v 10.2 2.1 -8.2
v 10.2 2.2 -1.1
v 10.2 2.2 -1.7
v 10.2 2.2 -2.6
v 10.2 2.2 -3
v 10.2 2.2 -3.5
v 10.2 2.2 -4.6
v 10.2 2.2 -4.7
v 10.2 2.2 -5.8
v 10.2 2.2 -7
v 10.2 2.2 -8.2
v 11.2 2.1 -0.2
v 11.2 2.1 -1.1
v 11.2 2.2 -0.2
v 11.2 2.2 -1.1
v 11.7 2.1 -3.3
v 11.7 2.1 -11
v 11.7 2.2 -3.3
v 11.7 2.2 -11
v 1.2 2 -3.8
v 1.2 2 -6.9
v 1.2 2.1 -3.8
v 1.2 2.1 -6.9
v 1.2 2.2 -3.8
v 1.2 2.2 -6.9
v 3.7 2.1 -0.1
v 3.7 2.1 -8.2
v 3.7 2.1 -10.7
v 3.7 2.1 -11.5
v 3.7 2.1 -11.9
v 3.7 2.1 -12.1
v 3.7 2.2 -0.1
v 3.7 2.2 -8.2
v 3.7 2.2 -10.7
v 3.7 2.2 -11.5
v 3.7 2.2 -11.9
v 3.7 2.2 -12.1
v 5 2.1 -1
v 5 2.1 -2.8
v 5 2.2 -1
v 5 2.2 -2.8
v 5.8 2.1 -0.2
v 5.8 2.1 -0.8
v 5.8 2.1 -1.8
v 5.8 2.1 -3
v 5.8 2.2 -0.2
v 5.8 2.2 -0.8
v 5.8 2.2 -1.8
v 5.8 2.2 -3
v 6.4 2.1 -1.8
v 6.4 2.1 -3
v 6.4 2.2 -1.8
v 6.4 2.2 -3
v 7.3 2.1 -0.8
v 7.3 2.1 -2.6
v 7.3 2.2 -0.8
v 7.3 2.2 -2.6
v 9 2.1 -0.9
v 9 2.1 -1.7
v 9 2.1 -2.6
v 9 2.1 -2.8
v 9 2.2 -0.9
v 9 2.2 -1.7
v 9 2.2 -2.6
v 9 2.2 -2.8
v 9.1 2.1 -3.3
v 9.1 2.1 -4.6
v 9.1 2.1 -4.7
v 9.1 2.1 -5.8
v 9.1 2.1 -7
v 9.1 2.1 -8.2
v 9.1 2.1 -10.7
v 9.1 2.1 -11.5
v 9.1 2.1 -11.9
v 9.1 2.1 -12.4
v 9.1 2.2 -3.3
v 9.1 2.2 -4.6
v 9.1 2.2 -4.7
v 9.1 2.2 -5.8
v 9.1 2.2 -7
v 9.1 2.2 -8.2
v 9.1 2.2 -10.7
v 9.1 2.2 -11.5
v 9.1 2.2 -11.9
v 9.1 2.2 -12.4
v 9.8 2.1 -0.8
v 9.8 2.1 -1.7
v 9.8 2.1 -2.6
v 9.8 2.1 -4.6
v 9.8 2.1 -4.7
v 9.8 2.1 -5.8
v 9.8 2.1 -7
v 9.8 2.1 -8.2
v 9.8 2.1 -10.7
v 9.8 2.1 -11.3
v 9.8 2.2 -0.8
v 9.8 2.2 -1.7
v 9.8 2.2 -2.6
v 9.8 2.2 -4.6
v 9.8 2.2 -4.7
v 9.8 2.2 -5.8
v 9.8 2.2 -7
v 9.8 2.2 -8.2
v 9.8 2.2 -10.7
v 9.8 2.2 -11.3
v 10.6 2.1 -1.1
v 10.6 2.1 -1.7
v 10.6 2.1 -2.6
v 10.6 2.1 -3
v 10.6 2.2 -1.1
v 10.6 2.2 -1.7
v 10.6 2.2 -2.6
v 10.6 2.2 -3
v 10.8 2.1 -3.5
v 10.8 2.1 -4.6
v 10.8 2.1 -4.7
v 10.8 2.1 -5.8
v 10.8 2.1 -7
v 10.8 2.1 -8.2
v 10.8 2.2 -3.5
v 10.8 2.2 -4.6
v 10.8 2.2 -4.7
v 10.8 2.2 -5.8
v 10.8 2.2 -7
v 10.8 2.2 -8.2
v 11.3 2.1 -4.6
v 11.3 2.1 -4.7
v 11.3 2.3 -4.6
v 11.3 2.3 -4.7
v 11.4 2.1 -1.7
v 11.4 2.1 -2.6
v 11.4 2.1 -5.8
v 11.4 2.1 -7
v 11.4 2.1 -8.2
v 11.4 2.1 -10.7
v 11.4 2.3 -1.7
v 11.4 2.3 -2.6
v 11.4 2.3 -5.8
v 11.4 2.3 -7
v 11.4 2.3 -8.2
v 11.4 2.3 -10.7
v 12 2.1 -3.3
v 12 2.1 -11
v 12 2.2 -3.3
v 12 2.2 -11
v 12.2 2.1 -0.2
v 12.2 2.1 -1.1
v 12.2 2.1 -11.5
v 12.2 2.1 -11.9
v 12.2 2.2 -0.2
v 12.2 2.2 -1.1
v 12.2 2.3 -11.5
v 12.2 2.3 -11.9
v 12.6 2 0
v 12.6 2 -12.6
v 12.6 2.1 0
v 12.6 2.1 -12.6
v 0 2 0
v 0 2.1 0
v 12.6 2 0
v 12.6 2.1 0
v 0.7 2.1 -0.1
v 0.7 2.2 -0.1
v 3.7 2.1 -0.1
v 3.7 2.2 -0.1
v 5.2 2.1 -0.2
v 5.2 2.2 -0.2
v 5.8 2.1 -0.2
v 5.8 2.2 -0.2
v 11.2 2.1 -0.2
v 11.2 2.2 -0.2
v 12.2 2.1 -0.2
v 12.2 2.2 -0.2
v 6.6 2.1 -0.8
v 6.6 2.2 -0.8
v 7.3 2.1 -0.8
v 7.3 2.2 -0.8
v 9.5 2.1 -0.8
v 9.5 2.2 -0.8
v 9.8 2.1 -0.8
v 9.8 2.2 -0.8
v 8.2 2.1 -0.9
v 8.2 2.2 -0.9
v 9 2.1 -0.9
v 9 2.2 -0.9
v 4.9 2.1 -1
v 4.9 2.2 -1
v 5 2.1 -1
v 5 2.2 -1
v 10.2 2.1 -1.1
v 10.2 2.2 -1.1
v 10.6 2.1 -1.1
v 10.6 2.2 -1.1
v 8.6 2.2 -1.7
v 8.6 2.3 -1.7
v 9 2.1 -1.7
v 9 2.2 -1.7
v 9.5 2.1 -1.7
v 9.5 2.2 -1.7
v 9.8 2.1 -1.7
v 9.8 2.2 -1.7
v 10.2 2.1 -1.7
v 10.2 2.2 -1.7
v 10.6 2.1 -1.7
v 10.6 2.2 -1.7
v 11.4 2.1 -1.7
v 11.4 2.3 -1.7
v 5.3 2.1 -1.8
v 5.3 2.2 -1.8
v 5.8 2.1 -1.8
v 5.8 2.2 -1.8
v 6 2.1 -1.8
v 6 2.2 -1.8
v 6.4 2.1 -1.8
v 6.4 2.2 -1.8
v 4.5 2.1 -3.3
v 4.5 2.2 -3.3
v 9.1 2.1 -3.3
v 9.1 2.2 -3.3
v 11.7 2.1 -3.3
v 11.7 2.2 -3.3
v 12 2.1 -3.3
v 12 2.2 -3.3
v 10.2 2.1 -3.5
v 10.2 2.2 -3.5
v 10.8 2.1 -3.5
v 10.8 2.2 -3.5
v 8.1 2.2 -4.6
v 8.1 2.3 -4.6
v 9.1 2.1 -4.6
v 9.1 2.2 -4.6
v 9.5 2.1 -4.6
v 9.5 2.2 -4.6
v 9.8 2.1 -4.6
v 9.8 2.2 -4.6
v 10.2 2.1 -4.6
v 10.2 2.2 -4.6
v 10.8 2.1 -4.6
v 10.8 2.2 -4.6
v 11.3 2.1 -4.6
v 11.3 2.3 -4.6
v 6.5 2.2 -5.8
v 6.5 2.3 -5.8
v 9.1 2.1 -5.8
v 9.1 2.2 -5.8
v 9.5 2.1 -5.8
v 9.5 2.2 -5.8
v 9.8 2.1 -5.8
v 9.8 2.2 -5.8
v 10.2 2.1 -5.8
v 10.2 2.2 -5.8
v 10.8 2.1 -5.8
v 10.8 2.2 -5.8
v 11.4 2.1 -5.8
v 11.4 2.3 -5.8
v 1.2 2 -6.9
v 1.2 2.1 -6.9
v 1.2 2.2 -6.9
v 3.3 2 -6.9
v 3.3 2.1 -6.9
v 3.3 2.2 -6.9
v 1.9 2.2 -8.2
v 1.9 2.3 -8.2
v 3.7 2.1 -8.2
v 3.7 2.2 -8.2
v 4.5 2.1 -8.2
v 4.5 2.2 -8.2
v 9.1 2.1 -8.2
v 9.1 2.2 -8.2
v 9.5 2.1 -8.2
v 9.5 2.2 -8.2
v 9.8 2.1 -8.2
v 9.8 2.2 -8.2
v 10.2 2.1 -8.2
v 10.2 2.2 -8.2
v 10.8 2.1 -8.2
v 10.8 2.2 -8.2
v 11.4 2.1 -8.2
v 11.4 2.3 -8.2
v 0.9 2.2 -11.5
v 0.9 2.3 -11.5
v 3.7 2.1 -11.5
v 3.7 2.2 -11.5
v 4.5 2.1 -11.5
v 4.5 2.2 -11.5
v 9.1 2.1 -11.5
v 9.1 2.2 -11.5
v 12.2 2.1 -11.5
v 12.2 2.3 -11.5
v 5.2 2.1 -0.8
v 5.2 2.2 -0.8
v 5.8 2.1 -0.8
v 5.8 2.2 -0.8
v 11.2 2.1 -1.1
v 11.2 2.2 -1.1
v 12.2 2.1 -1.1
v 12.2 2.2 -1.1
v 6.6 2.1 -2.6
v 6.6 2.2 -2.6
v 7.3 2.1 -2.6
v 7.3 2.2 -2.6
v 8.6 2.2 -2.6
v 8.6 2.3 -2.6
v 9 2.1 -2.6
v 9 2.2 -2.6
v 9.5 2.1 -2.6
v 9.5 2.2 -2.6
v 9.8 2.1 -2.6
v 9.8 2.2 -2.6
v 10.2 2.1 -2.6
v 10.2 2.2 -2.6
v 10.6 2.1 -2.6
v 10.6 2.2 -2.6
v 11.4 2.1 -2.6
v 11.4 2.3 -2.6
v 4.9 2.1 -2.8
v 4.9 2.2 -2.8
v 5 2.1 -2.8
v 5 2.2 -2.8
v 8.2 2.1 -2.8
v 8.2 2.2 -2.8
v 9 2.1 -2.8
v 9 2.2 -2.8
v 5.3 2.1 -3
v 5.3 2.2 -3
v 5.8 2.1 -3
v 5.8 2.2 -3
v 6 2.1 -3
v 6 2.2 -3
v 6.4 2.1 -3
v 6.4 2.2 -3
v 10.2 2.1 -3
v 10.2 2.2 -3
v 10.6 2.1 -3
v 10.6 2.2 -3
v 1.2 2 -3.8
v 1.2 2.1 -3.8
v 1.2 2.2 -3.8
v 3.3 2 -3.8
v 3.3 2.1 -3.8
v 3.3 2.2 -3.8
v 8.1 2.2 -4.7
v 8.1 2.3 -4.7
v 9.1 2.1 -4.7
v 9.1 2.2 -4.7
v 9.5 2.1 -4.7
v 9.5 2.2 -4.7
v 9.8 2.1 -4.7
v 9.8 2.2 -4.7
v 10.2 2.1 -4.7
v 10.2 2.2 -4.7
v 10.8 2.1 -4.7
v 10.8 2.2 -4.7
v 11.3 2.1 -4.7
v 11.3 2.3 -4.7
v 6.5 2.2 -7
v 6.5 2.3 -7
v 9.1 2.1 -7
v 9.1 2.2 -7
v 9.5 2.1 -7
v 9.5 2.2 -7
v 9.8 2.1 -7
v 9.8 2.2 -7
v 10.2 2.1 -7
v 10.2 2.2 -7
v 10.8 2.1 -7
v 10.8 2.2 -7
v 11.4 2.1 -7
v 11.4 2.3 -7
v 1.9 2.2 -10.7
v 1.9 2.3 -10.7
v 3.7 2.1 -10.7
v 3.7 2.2 -10.7
v 4.5 2.1 -10.7
v 4.5 2.2 -10.7
v 9.1 2.1 -10.7
v 9.1 2.2 -10.7
v 9.5 2.1 -10.7
v 9.5 2.2 -10.7
v 9.8 2.1 -10.7
v 9.8 2.2 -10.7
v 11.4 2.1 -10.7
v 11.4 2.3 -10.7
v 11.7 2.1 -11
v 11.7 2.2 -11
v 12 2.1 -11
v 12 2.2 -11
v 9.5 2.1 -11.3
v 9.5 2.2 -11.3
v 9.8 2.1 -11.3
v 9.8 2.2 -11.3
v 0.9 2.2 -11.9
v 0.9 2.3 -11.9
v 3.7 2.1 -11.9
v 3.7 2.2 -11.9
v 4.5 2.1 -11.9
v 4.5 2.2 -11.9
v 9.1 2.1 -11.9
v 9.1 2.2 -11.9
v 12.2 2.1 -11.9
v 12.2 2.3 -11.9
v 0.7 2.1 -12.1
v 0.7 2.2 -12.1
v 3.7 2.1 -12.1
v 3.7 2.2 -12.1
v 4.5 2.1 -12.4
v 4.5 2.2 -12.4
v 9.1 2.1 -12.4
v 9.1 2.2 -12.4
v 0 2 -12.6
v 0 2.1 -12.6
v 12.6 2 -12.6
v 12.6 2.1 -12.6
v 0 2 0
v 12.6 2 0
v 1.2 2 -3.8
v 3.3 2 -3.8
v 1.2 2 -6.9
v 3.3 2 -6.9
v 0 2 -12.6
v 12.6 2 -12.6
v 0 2.1 0
v 12.6 2.1 0
v 0.7 2.1 -0.1
v 3.7 2.1 -0.1
v 5.2 2.1 -0.2
v 5.8 2.1 -0.2
v 11.2 2.1 -0.2
v 12.2 2.1 -0.2
v 5.2 2.1 -0.8
v 5.8 2.1 -0.8
v 6.6 2.1 -0.8
v 7.3 2.1 -0.8
v 9.5 2.1 -0.8
v 9.8 2.1 -0.8
v 8.2 2.1 -0.9
v 9 2.1 -0.9
v 4.9 2.1 -1
v 5 2.1 -1
v 10.2 2.1 -1.1
v 10.6 2.1 -1.1
v 11.2 2.1 -1.1
v 12.2 2.1 -1.1
v 9 2.1 -1.7
v 9.5 2.1 -1.7
v 9.8 2.1 -1.7
v 10.2 2.1 -1.7
v 10.6 2.1 -1.7
v 11.4 2.1 -1.7
v 5.3 2.1 -1.8
v 5.8 2.1 -1.8
v 6 2.1 -1.8
v 6.4 2.1 -1.8
v 6.6 2.1 -2.6
v 7.3 2.1 -2.6
v 9 2.1 -2.6
v 9.5 2.1 -2.6
v 9.8 2.1 -2.6
v 10.2 2.1 -2.6
v 10.6 2.1 -2.6
v 11.4 2.1 -2.6
v 4.9 2.1 -2.8
v 5 2.1 -2.8
v 8.2 2.1 -2.8
v 9 2.1 -2.8
v 5.3 2.1 -3
v 5.8 2.1 -3
v 6 2.1 -3
v 6.4 2.1 -3
v 10.2 2.1 -3
v 10.6 2.1 -3
v 4.5 2.1 -3.3
v 9.1 2.1 -3.3
v 11.7 2.1 -3.3
v 12 2.1 -3.3
v 10.2 2.1 -3.5
v 10.8 2.1 -3.5
v 9.1 2.1 -4.6
v 9.5 2.1 -4.6
v 9.8 2.1 -4.6
v 10.2 2.1 -4.6
v 10.8 2.1 -4.6
v 11.3 2.1 -4.6
v 9.1 2.1 -4.7
v 9.5 2.1 -4.7
v 9.8 2.1 -4.7
v 10.2 2.1 -4.7
v 10.8 2.1 -4.7
v 11.3 2.1 -4.7
v 9.1 2.1 -5.8
v 9.5 2.1 -5.8
v 9.8 2.1 -5.8
v 10.2 2.1 -5.8
v 10.8 2.1 -5.8
v 11.4 2.1 -5.8
v 9.1 2.1 -7
v 9.5 2.1 -7
v 9.8 2.1 -7
v 10.2 2.1 -7
v 10.8 2.1 -7
v 11.4 2.1 -7
v 3.7 2.1 -8.2
v 4.5 2.1 -8.2
v 9.1 2.1 -8.2
v 9.5 2.1 -8.2
v 9.8 2.1 -8.2
v 10.2 2.1 -8.2
v 10.8 2.1 -8.2
v 11.4 2.1 -8.2
v 3.7 2.1 -10.7
v 4.5 2.1 -10.7
v 9.1 2.1 -10.7
v 9.5 2.1 -10.7
v 9.8 2.1 -10.7
v 11.4 2.1 -10.7
v 11.7 2.1 -11
v 12 2.1 -11
v 9.5 2.1 -11.3
v 9.8 2.1 -11.3
v 3.7 2.1 -11.5
v 4.5 2.1 -11.5
v 9.1 2.1 -11.5
v 12.2 2.1 -11.5
v 3.7 2.1 -11.9
v 4.5 2.1 -11.9
v 9.1 2.1 -11.9
v 12.2 2.1 -11.9
v 0.7 2.1 -12.1
v 3.7 2.1 -12.1
v 4.5 2.1 -12.4
v 9.1 2.1 -12.4
v 0 2.1 -12.6
v 12.6 2.1 -12.6
v 0.7 2.2 -0.1
v 3.7 2.2 -0.1
v 5.2 2.2 -0.2
v 5.8 2.2 -0.2
v 11.2 2.2 -0.2
v 12.2 2.2 -0.2
v 5.2 2.2 -0.8
v 5.8 2.2 -0.8
v 6.6 2.2 -0.8
v 7.3 2.2 -0.8
v 9.5 2.2 -0.8
v 9.8 2.2 -0.8
v 8.2 2.2 -0.9
v 9 2.2 -0.9
v 4.9 2.2 -1
v 5 2.2 -1
v 10.2 2.2 -1.1
v 10.6 2.2 -1.1
v 11.2 2.2 -1.1
v 12.2 2.2 -1.1
v 8.6 2.2 -1.7
v 9 2.2 -1.7
v 9.5 2.2 -1.7
v 9.8 2.2 -1.7
v 10.2 2.2 -1.7
v 10.6 2.2 -1.7
v 5.3 2.2 -1.8
v 5.8 2.2 -1.8
v 6 2.2 -1.8
v 6.4 2.2 -1.8
v 6.6 2.2 -2.6
v 7.3 2.2 -2.6
v 8.6 2.2 -2.6
v 9 2.2 -2.6
v 9.5 2.2 -2.6
v 9.8 2.2 -2.6
v 10.2 2.2 -2.6
v 10.6 2.2 -2.6
v 4.9 2.2 -2.8
v 5 2.2 -2.8
v 8.2 2.2 -2.8
v 9 2.2 -2.8
v 5.3 2.2 -3
v 5.8 2.2 -3
v 6 2.2 -3
v 6.4 2.2 -3
v 10.2 2.2 -3
v 10.6 2.2 -3
v 4.5 2.2 -3.3
v 9.1 2.2 -3.3
v 11.7 2.2 -3.3
v 12 2.2 -3.3
v 10.2 2.2 -3.5
v 10.8 2.2 -3.5
v 1.2 2.2 -3.8
v 3.3 2.2 -3.8
v 8.1 2.2 -4.6
v 9.1 2.2 -4.6
v 9.5 2.2 -4.6
v 9.8 2.2 -4.6
v 10.2 2.2 -4.6
v 10.8 2.2 -4.6
v 8.1 2.2 -4.7
v 9.1 2.2 -4.7
v 9.5 2.2 -4.7
v 9.8 2.2 -4.7
v 10.2 2.2 -4.7
v 10.8 2.2 -4.7
v 6.5 2.2 -5.8
v 9.1 2.2 -5.8
v 9.5 2.2 -5.8
v 9.8 2.2 -5.8
v 10.2 2.2 -5.8
v 10.8 2.2 -5.8
v 1.2 2.2 -6.9
v 3.3 2.2 -6.9
v 6.5 2.2 -7
v 9.1 2.2 -7
v 9.5 2.2 -7
v 9.8 2.2 -7
v 10.2 2.2 -7
v 10.8 2.2 -7
v 1.9 2.2 -8.2
v 3.7 2.2 -8.2
v 4.5 2.2 -8.2
v 9.1 2.2 -8.2
v 9.5 2.2 -8.2
v 9.8 2.2 -8.2
v 10.2 2.2 -8.2
v 10.8 2.2 -8.2
v 1.9 2.2 -10.7
v 3.7 2.2 -10.7
v 4.5 2.2 -10.7
v 9.1 2.2 -10.7
v 9.5 2.2 -10.7
v 9.8 2.2 -10.7
v 11.7 2.2 -11
v 12 2.2 -11
v 9.5 2.2 -11.3
v 9.8 2.2 -11.3
v 0.9 2.2 -11.5
v 3.7 2.2 -11.5
v 4.5 2.2 -11.5
v 9.1 2.2 -11.5
v 0.9 2.2 -11.9
v 3.7 2.2 -11.9
v 4.5 2.2 -11.9
v 9.1 2.2 -11.9
v 0.7 2.2 -12.1
v 3.7 2.2 -12.1
v 4.5 2.2 -12.4
v 9.1 2.2 -12.4
v 8.6 2.3 -1.7
v 11.4 2.3 -1.7
v 8.6 2.3 -2.6
v 11.4 2.3 -2.6
v 8.1 2.3 -4.6
v 11.3 2.3 -4.6
v 8.1 2.3 -4.7
v 11.3 2.3 -4.7
v 6.5 2.3 -5.8
v 11.4 2.3 -5.8
v 6.5 2.3 -7
v 11.4 2.3 -7
v 1.9 2.3 -8.2
v 11.4 2.3 -8.2
v 1.9 2.3 -10.7
v 11.4 2.3 -10.7
v 0.9 2.3 -11.5
v 12.2 2.3 -11.5
v 0.9 2.3 -11.9
v 12.2 2.3 -11.9

# faces
f 3/3/1 2/3/1 1/3/1
f 4/3/1 2/3/1 3/3/1
f 7/2/1 6/2/1 5/2/1
f 8/2/1 6/2/1 7/2/1
f 11/4/1 10/4/1 9/4/1
f 12/4/1 10/4/1 11/4/1
f 15/1/1 14/1/1 13/1/1
f 16/1/1 14/1/1 15/1/1
f 19/3/1 18/3/1 17/3/1
f 20/3/1 18/3/1 19/3/1
f 21/2/1 20/2/1 19/2/1
f 22/2/1 20/2/1 21/2/1
f 29/2/1 24/2/1 23/2/1
f 30/2/1 24/2/1 29/2/1
f 31/2/1 26/2/1 25/2/1
f 32/2/1 26/2/1 31/2/1
f 33/2/1 28/2/1 27/2/1
f 34/2/1 28/2/1 33/2/1
f 37/2/1 36/2/1 35/2/1
f 38/2/1 36/2/1 37/2/1
f 41/1/1 40/1/1 39/1/1
f 42/1/1 40/1/1 41/1/1
f 45/4/1 44/4/1 43/4/1
f 46/4/1 44/4/1 45/4/1
f 49/4/1 48/4/1 47/4/1
f 50/4/1 48/4/1 49/4/1
f 53/1/1 52/1/1 51/1/1
f 54/1/1 52/1/1 53/1/1
f 57/2/1 56/2/1 55/2/1
f 58/2/1 56/2/1 57/2/1
f 61/1/1 60/1/1 59/1/1
f 62/1/1 60/1/1 61/1/1
f 65/2/1 64/2/1 63/2/1
f 66/2/1 64/2/1 65/2/1
f 69/1/1 68/1/1 67/1/1
f 70/1/1 68/1/1 69/1/1
f 81/2/1 72/2/1 71/2/1
f 82/2/1 72/2/1 81/2/1
f 83/2/1 74/2/1 73/2/1
f 84/2/1 74/2/1 83/2/1
f 85/2/1 76/2/1 75/2/1
f 86/2/1 76/2/1 85/2/1
f 87/2/1 78/2/1 77/2/1
f 88/2/1 78/2/1 87/2/1
f 89/2/1 80/2/1 79/2/1
f 90/2/1 80/2/1 89/2/1
f 101/2/1 92/2/1 91/2/1
f 102/2/1 92/2/1 101/2/1
f 103/2/1 94/2/1 93/2/1
f 104/2/1 94/2/1 103/2/1
f 105/2/1 96/2/1 95/2/1
f 106/2/1 96/2/1 105/2/1
f 107/2/1 98/2/1 97/2/1
f 108/2/1 98/2/1 107/2/1
f 109/2/1 100/2/1 99/2/1
f 110/2/1 100/2/1 109/2/1
f 113/1/1 112/1/1 111/1/1
f 114/1/1 112/1/1 113/1/1
f 117/2/1 116/2/1 115/2/1
f 118/2/1 116/2/1 117/2/1
f 119/3/2 120/3/2 121/3/2
f 121/3/2 120/3/2 122/3/2
f 121/2/2 122/2/2 123/2/2
f 123/2/2 122/2/2 124/2/2
f 125/2/2 126/2/2 131/2/2
f 131/2/2 126/2/2 132/2/2
f 127/2/2 128/2/2 133/2/2
f 133/2/2 128/2/2 134/2/2
f 129/2/2 130/2/2 135/2/2
f 135/2/2 130/2/2 136/2/2
f 137/2/2 138/2/2 139/2/2
f 139/2/2 138/2/2 140/2/2
f 141/1/2 142/1/2 145/1/2
f 145/1/2 142/1/2 146/1/2
f 143/4/2 144/4/2 147/4/2
f 147/4/2 144/4/2 148/4/2
f 149/4/2 150/4/2 151/4/2
f 151/4/2 150/4/2 152/4/2
f 153/2/2 154/2/2 155/2/2
f 155/2/2 154/2/2 156/2/2
f 157/2/2 158/2/2 161/2/2
f 161/2/2 158/2/2 162/2/2
f 159/2/2 160/2/2 163/2/2
f 163/2/2 160/2/2 164/2/2
f 165/2/2 166/2/2 175/2/2
f 175/2/2 166/2/2 176/2/2
f 167/2/2 168/2/2 177/2/2
f 177/2/2 168/2/2 178/2/2
f 169/2/2 170/2/2 179/2/2
f 179/2/2 170/2/2 180/2/2
f 171/2/2 172/2/2 181/2/2
f 181/2/2 172/2/2 182/2/2
f 173/2/2 174/2/2 183/2/2
f 183/2/2 174/2/2 184/2/2
f 185/2/2 186/2/2 195/2/2
f 195/2/2 186/2/2 196/2/2
f 187/2/2 188/2/2 197/2/2
f 197/2/2 188/2/2 198/2/2
f 189/2/2 190/2/2 199/2/2
f 199/2/2 190/2/2 200/2/2
f 191/2/2 192/2/2 201/2/2
f 201/2/2 192/2/2 202/2/2
f 193/2/2 194/2/2 203/2/2
f 203/2/2 194/2/2 204/2/2
f 205/2/2 206/2/2 209/2/2
f 209/2/2 206/2/2 210/2/2
f 207/2/2 208/2/2 211/2/2
f 211/2/2 208/2/2 212/2/2
f 213/2/2 214/2/2 219/2/2
f 219/2/2 214/2/2 220/2/2
f 215/2/2 216/2/2 221/2/2
f 221/2/2 216/2/2 222/2/2
f 217/2/2 218/2/2 223/2/2
f 223/2/2 218/2/2 224/2/2
f 225/1/2 226/1/2 227/1/2
f 227/1/2 226/1/2 228/1/2
f 229/1/2 230/1/2 235/1/2
f 235/1/2 230/1/2 236/1/2
f 231/1/2 232/1/2 237/1/2
f 237/1/2 232/1/2 238/1/2
f 233/1/2 234/1/2 239/1/2
f 239/1/2 234/1/2 240/1/2
f 241/2/2 242/2/2 243/2/2
f 243/2/2 242/2/2 244/2/2
f 245/1/2 246/1/2 249/1/2
f 249/1/2 246/1/2 250/1/2
f 247/4/2 248/4/2 251/4/2
f 251/4/2 248/4/2 252/4/2
f 253/3/2 254/3/2 255/3/2
f 255/3/2 254/3/2 256/3/2
f 259/3/3 258/3/3 257/3/3
f 260/3/3 258/3/3 259/3/3
f 263/2/3 262/2/3 261/2/3
f 264/2/3 262/2/3 263/2/3
f 267/1/3 266/1/3 265/1/3
f 268/1/3 266/1/3 267/1/3
f 271/1/3 270/1/3 269/1/3
f 272/1/3 270/1/3 271/1/3
f 275/2/3 274/2/3 273/2/3
f 276/2/3 274/2/3 275/2/3
f 279/2/3 278/2/3 277/2/3
f 280/2/3 278/2/3 279/2/3
f 283/2/3 282/2/3 281/2/3
f 284/2/3 282/2/3 283/2/3
f 287/2/3 286/2/3 285/2/3
f 288/2/3 286/2/3 287/2/3
f 291/2/3 290/2/3 289/2/3
f 292/2/3 290/2/3 291/2/3
f 296/1/3 294/1/3 293/1/3
f 297/1/3 296/1/3 295/1/3
f 298/1/3 294/1/3 296/1/3
f 298/1/3 296/1/3 297/1/3
f 300/1/3 294/1/3 298/1/3
f 301/1/3 300/1/3 299/1/3
f 302/1/3 294/1/3 300/1/3
f 302/1/3 300/1/3 301/1/3
f 304/1/3 294/1/3 302/1/3
f 305/1/3 304/1/3 303/1/3
f 306/1/3 294/1/3 304/1/3
f 306/1/3 304/1/3 305/1/3
f 309/4/3 308/4/3 307/4/3
f 310/4/3 308/4/3 309/4/3
f 313/4/3 312/4/3 311/4/3
f 314/4/3 312/4/3 313/4/3
f 317/2/3 316/2/3 315/2/3
f 318/2/3 316/2/3 317/2/3
f 321/2/3 320/2/3 319/2/3
f 322/2/3 320/2/3 321/2/3
f 325/2/3 324/2/3 323/2/3
f 326/2/3 324/2/3 325/2/3
f 330/1/3 328/1/3 327/1/3
f 331/1/3 330/1/3 329/1/3
f 332/1/3 328/1/3 330/1/3
f 332/1/3 330/1/3 331/1/3
f 334/1/3 328/1/3 332/1/3
f 335/1/3 334/1/3 333/1/3
f 336/1/3 328/1/3 334/1/3
f 336/1/3 334/1/3 335/1/3
f 338/1/3 328/1/3 336/1/3
f 339/1/3 338/1/3 337/1/3
f 340/1/3 328/1/3 338/1/3
f 340/1/3 338/1/3 339/1/3
f 344/1/3 342/1/3 341/1/3
f 345/1/3 344/1/3 343/1/3
f 346/1/3 342/1/3 344/1/3
f 346/1/3 344/1/3 345/1/3
f 348/1/3 342/1/3 346/1/3
f 349/1/3 348/1/3 347/1/3
f 350/1/3 342/1/3 348/1/3
f 350/1/3 348/1/3 349/1/3
f 352/1/3 342/1/3 350/1/3
f 353/1/3 352/1/3 351/1/3
f 354/1/3 342/1/3 352/1/3
f 354/1/3 352/1/3 353/1/3
f 358/3/3 356/3/3 355/3/3
f 359/2/3 357/2/3 356/2/3
f 359/3/3 356/3/3 358/3/3
f 360/2/3 357/2/3 359/2/3
f 364/1/3 362/1/3 361/1/3
f 365/1/3 364/1/3 363/1/3
f 366/1/3 362/1/3 364/1/3
f 366/1/3 364/1/3 365/1/3
f 368/1/3 362/1/3 366/1/3
f 369/1/3 368/1/3 367/1/3
f 370/1/3 362/1/3 368/1/3
f 370/1/3 368/1/3 369/1/3
f 372/1/3 362/1/3 370/1/3
f 373/1/3 372/1/3 371/1/3
f 374/1/3 362/1/3 372/1/3
f 374/1/3 372/1/3 373/1/3
f 376/1/3 362/1/3 374/1/3
f 377/1/3 376/1/3 375/1/3
f 378/1/3 362/1/3 376/1/3
f 378/1/3 376/1/3 377/1/3
f 382/4/3 380/4/3 379/4/3
f 383/4/3 382/4/3 381/4/3
f 384/4/3 380/4/3 382/4/3
f 384/4/3 382/4/3 383/4/3
f 386/4/3 380/4/3 384/4/3
f 387/4/3 386/4/3 385/4/3
f 388/4/3 380/4/3 386/4/3
f 388/4/3 386/4/3 387/4/3
f 389/1/4 390/1/4 391/1/4
f 391/1/4 390/1/4 392/1/4
f 393/1/4 394/1/4 395/1/4
f 395/1/4 394/1/4 396/1/4
f 397/2/4 398/2/4 399/2/4
f 399/2/4 398/2/4 400/2/4
f 401/1/4 402/1/4 404/1/4
f 403/1/4 404/1/4 405/1/4
f 404/1/4 402/1/4 406/1/4
f 405/1/4 404/1/4 406/1/4
f 406/1/4 402/1/4 408/1/4
f 407/1/4 408/1/4 409/1/4
f 408/1/4 402/1/4 410/1/4
f 409/1/4 408/1/4 410/1/4
f 410/1/4 402/1/4 412/1/4
f 411/1/4 412/1/4 413/1/4
f 412/1/4 402/1/4 414/1/4
f 413/1/4 412/1/4 414/1/4
f 415/2/4 416/2/4 417/2/4
f 417/2/4 416/2/4 418/2/4
f 419/2/4 420/2/4 421/2/4
f 421/2/4 420/2/4 422/2/4
f 423/4/4 424/4/4 425/4/4
f 425/4/4 424/4/4 426/4/4
f 427/4/4 428/4/4 429/4/4
f 429/4/4 428/4/4 430/4/4
f 431/2/4 432/2/4 433/2/4
f 433/2/4 432/2/4 434/2/4
f 435/3/4 436/3/4 438/3/4
f 436/2/4 437/2/4 439/2/4
f 438/3/4 436/3/4 439/3/4
f 439/2/4 437/2/4 440/2/4
f 441/1/4 442/1/4 444/1/4
f 443/1/4 444/1/4 445/1/4
f 444/1/4 442/1/4 446/1/4
f 445/1/4 444/1/4 446/1/4
f 446/1/4 442/1/4 448/1/4
f 447/1/4 448/1/4 449/1/4
f 448/1/4 442/1/4 450/1/4
f 449/1/4 448/1/4 450/1/4
f 450/1/4 442/1/4 452/1/4
f 451/1/4 452/1/4 453/1/4
f 452/1/4 442/1/4 454/1/4
f 453/1/4 452/1/4 454/1/4
f 455/1/4 456/1/4 458/1/4
f 457/1/4 458/1/4 459/1/4
f 458/1/4 456/1/4 460/1/4
f 459/1/4 458/1/4 460/1/4
f 460/1/4 456/1/4 462/1/4
f 461/1/4 462/1/4 463/1/4
f 462/1/4 456/1/4 464/1/4
f 463/1/4 462/1/4 464/1/4
f 464/1/4 456/1/4 466/1/4
f 465/1/4 466/1/4 467/1/4
f 466/1/4 456/1/4 468/1/4
f 467/1/4 466/1/4 468/1/4
f 469/1/4 470/1/4 472/1/4
f 471/1/4 472/1/4 473/1/4
f 472/1/4 470/1/4 474/1/4
f 473/1/4 472/1/4 474/1/4
f 474/1/4 470/1/4 476/1/4
f 475/1/4 476/1/4 477/1/4
f 476/1/4 470/1/4 478/1/4
f 477/1/4 476/1/4 478/1/4
f 478/1/4 470/1/4 480/1/4
f 479/1/4 480/1/4 481/1/4
f 480/1/4 470/1/4 482/1/4
f 481/1/4 480/1/4 482/1/4
f 483/2/4 484/2/4 485/2/4
f 485/2/4 484/2/4 486/2/4
f 487/2/4 488/2/4 489/2/4
f 489/2/4 488/2/4 490/2/4
f 491/4/4 492/4/4 494/4/4
f 493/4/4 494/4/4 495/4/4
f 494/4/4 492/4/4 496/4/4
f 495/4/4 494/4/4 496/4/4
f 496/4/4 492/4/4 498/4/4
f 497/4/4 498/4/4 499/4/4
f 498/4/4 492/4/4 500/4/4
f 499/4/4 498/4/4 500/4/4
f 501/2/4 502/2/4 503/2/4
f 503/2/4 502/2/4 504/2/4
f 505/2/4 506/2/4 507/2/4
f 507/2/4 506/2/4 508/2/4
f 509/3/4 510/3/4 511/3/4
f 511/3/4 510/3/4 512/3/4
f 515/3/5 514/3/5 513/3/5
f 516/3/5 514/3/5 515/3/5
f 517/3/5 515/3/5 513/3/5
f 518/3/5 514/3/5 516/3/5
f 519/3/5 517/3/5 513/3/5
f 519/3/5 518/3/5 517/3/5
f 520/3/5 514/3/5 518/3/5
f 520/3/5 518/3/5 519/3/5
f 521/3/6 522/3/6 523/3/6
f 523/3/6 522/3/6 524/3/6
f 524/3/6 522/3/6 525/3/6
f 525/3/6 522/3/6 526/3/6
f 526/3/6 522/3/6 527/3/6
f 527/3/6 522/3/6 528/3/6
f 524/3/6 525/3/6 529/3/6
f 526/3/6 527/3/6 530/3/6
f 530/3/6 527/3/6 531/3/6
f 531/3/6 527/3/6 532/3/6
f 532/3/6 527/3/6 533/3/6
f 533/3/6 527/3/6 534/3/6
f 532/3/6 533/3/6 535/3/6
f 535/3/6 533/3/6 536/3/6
f 524/3/6 529/3/6 537/3/6
f 529/3/6 530/3/6 537/3/6
f 530/3/6 531/3/6 537/3/6
f 537/3/6 531/3/6 538/3/6
f 534/3/6 527/3/6 539/3/6
f 539/3/6 527/3/6 540/3/6
f 540/3/6 527/3/6 541/3/6
f 528/3/6 522/3/6 542/3/6
f 536/3/6 533/3/6 543/3/6
f 543/3/6 533/3/6 544/3/6
f 534/3/6 539/3/6 545/3/6
f 545/3/6 539/3/6 546/3/6
f 540/3/6 541/3/6 547/3/6
f 541/3/6 542/3/6 547/3/6
f 547/3/6 542/3/6 548/3/6
f 538/3/6 531/3/6 549/3/6
f 549/3/6 531/3/6 550/3/6
f 550/3/6 531/3/6 551/3/6
f 551/3/6 531/3/6 552/3/6
f 552/3/6 531/3/6 553/3/6
f 532/3/6 535/3/6 554/3/6
f 548/3/6 542/3/6 560/3/6
f 524/3/6 537/3/6 561/3/6
f 538/3/6 549/3/6 562/3/6
f 554/3/6 535/3/6 563/3/6
f 553/3/6 554/3/6 563/3/6
f 555/3/6 556/3/6 564/3/6
f 561/3/6 562/3/6 565/3/6
f 562/3/6 549/3/6 565/3/6
f 550/3/6 551/3/6 566/3/6
f 566/3/6 551/3/6 567/3/6
f 552/3/6 553/3/6 568/3/6
f 563/3/6 564/3/6 568/3/6
f 553/3/6 563/3/6 568/3/6
f 557/3/6 558/3/6 569/3/6
f 559/3/6 560/3/6 570/3/6
f 567/3/6 568/3/6 571/3/6
f 566/3/6 567/3/6 571/3/6
f 524/3/6 561/3/6 571/3/6
f 561/3/6 565/3/6 571/3/6
f 565/3/6 566/3/6 571/3/6
f 568/3/6 564/3/6 572/3/6
f 571/3/6 568/3/6 572/3/6
f 564/3/6 556/3/6 572/3/6
f 569/3/6 570/3/6 573/3/6
f 570/3/6 560/3/6 573/3/6
f 560/3/6 542/3/6 573/3/6
f 573/3/6 542/3/6 574/3/6
f 557/3/6 569/3/6 575/3/6
f 569/3/6 573/3/6 575/3/6
f 575/3/6 573/3/6 576/3/6
f 572/3/6 556/3/6 577/3/6
f 577/3/6 556/3/6 578/3/6
f 557/3/6 575/3/6 579/3/6
f 579/3/6 575/3/6 580/3/6
f 576/3/6 573/3/6 581/3/6
f 581/3/6 573/3/6 582/3/6
f 582/3/6 573/3/6 588/3/6
f 583/3/6 584/3/6 589/3/6
f 589/3/6 584/3/6 590/3/6
f 585/3/6 586/3/6 591/3/6
f 591/3/6 586/3/6 592/3/6
f 587/3/6 588/3/6 593/3/6
f 588/3/6 573/3/6 594/3/6
f 593/3/6 588/3/6 594/3/6
f 594/3/6 573/3/6 600/3/6
f 524/3/6 571/3/6 601/3/6
f 601/3/6 571/3/6 602/3/6
f 595/3/6 596/3/6 603/3/6
f 603/3/6 596/3/6 604/3/6
f 597/3/6 598/3/6 605/3/6
f 605/3/6 598/3/6 606/3/6
f 599/3/6 600/3/6 607/3/6
f 600/3/6 573/3/6 608/3/6
f 607/3/6 600/3/6 608/3/6
f 608/3/6 573/3/6 614/3/6
f 614/3/6 573/3/6 615/3/6
f 613/3/6 614/3/6 615/3/6
f 574/3/6 542/3/6 616/3/6
f 611/3/6 612/3/6 617/3/6
f 615/3/6 616/3/6 618/3/6
f 613/3/6 615/3/6 618/3/6
f 609/3/6 610/3/6 619/3/6
f 619/3/6 610/3/6 620/3/6
f 611/3/6 617/3/6 621/3/6
f 617/3/6 618/3/6 621/3/6
f 616/3/6 542/3/6 622/3/6
f 621/3/6 618/3/6 622/3/6
f 542/3/6 522/3/6 622/3/6
f 618/3/6 616/3/6 622/3/6
f 622/3/6 522/3/6 626/3/6
f 521/3/6 523/3/6 627/3/6
f 623/3/6 624/3/6 628/3/6
f 628/3/6 624/3/6 629/3/6
f 627/3/6 628/3/6 629/3/6
f 625/3/6 626/3/6 630/3/6
f 627/3/6 629/3/6 631/3/6
f 629/3/6 630/3/6 631/3/6
f 521/3/6 627/3/6 631/3/6
f 630/3/6 626/3/6 632/3/6
f 631/3/6 630/3/6 632/3/6
f 626/3/6 522/3/6 632/3/6
f 635/1/6 636/1/6 639/1/6
f 639/1/6 636/1/6 640/1/6
f 637/1/6 638/1/6 651/1/6
f 651/1/6 638/1/6 652/1/6
f 645/2/6 646/2/6 653/2/6
f 653/2/6 646/2/6 654/2/6
f 643/2/6 644/2/6 655/2/6
f 655/2/6 644/2/6 656/2/6
f 649/2/6 650/2/6 657/2/6
f 657/2/6 650/2/6 658/2/6
f 641/2/6 642/2/6 663/2/6
f 663/2/6 642/2/6 664/2/6
f 645/2/6 653/2/6 665/2/6
f 647/2/6 648/2/6 671/2/6
f 671/2/6 648/2/6 672/2/6
f 645/2/6 665/2/6 673/2/6
f 665/2/6 666/2/6 673/2/6
f 673/2/6 666/2/6 674/2/6
f 659/4/6 660/4/6 675/4/6
f 675/4/6 660/4/6 676/4/6
f 661/4/6 662/4/6 677/4/6
f 677/4/6 662/4/6 678/4/6
f 669/2/6 670/2/6 679/2/6
f 679/2/6 670/2/6 680/2/6
f 633/2/6 634/2/6 687/2/6
f 687/2/6 634/2/6 688/2/6
f 681/2/6 682/2/6 689/2/6
f 689/2/6 682/2/6 690/2/6
f 667/2/6 668/2/6 691/2/6
f 691/2/6 668/2/6 692/2/6
f 685/2/6 686/2/6 693/2/6
f 693/2/6 686/2/6 694/2/6
f 681/2/6 689/2/6 695/2/6
f 681/2/6 695/2/6 701/2/6
f 695/2/6 696/2/6 701/2/6
f 701/2/6 696/2/6 702/2/6
f 697/2/6 698/2/6 703/2/6
f 703/2/6 698/2/6 704/2/6
f 699/2/6 700/2/6 705/2/6
f 705/2/6 700/2/6 706/2/6
f 633/2/6 687/2/6 707/2/6
f 688/2/6 634/2/6 708/2/6
f 681/2/6 701/2/6 709/2/6
f 707/2/6 708/2/6 715/2/6
f 708/2/6 634/2/6 716/2/6
f 715/2/6 708/2/6 716/2/6
f 681/2/6 709/2/6 717/2/6
f 709/2/6 710/2/6 717/2/6
f 717/2/6 710/2/6 718/2/6
f 711/2/6 712/2/6 719/2/6
f 719/2/6 712/2/6 720/2/6
f 713/2/6 714/2/6 721/2/6
f 721/2/6 714/2/6 722/2/6
f 707/2/6 715/2/6 723/2/6
f 683/2/6 684/2/6 729/2/6
f 729/2/6 684/2/6 730/2/6
f 727/2/6 728/2/6 731/2/6
f 731/2/6 728/2/6 732/2/6
f 633/2/6 707/2/6 733/2/6
f 723/2/6 724/2/6 733/2/6
f 707/2/6 723/2/6 733/2/6
f 733/2/6 724/2/6 734/2/6
f 725/2/6 726/2/6 735/2/6
f 735/2/6 726/2/6 736/2/6
f 633/2/6 733/2/6 737/2/6
f 633/2/6 737/2/6 741/2/6
f 737/2/6 738/2/6 741/2/6
f 741/2/6 738/2/6 742/2/6
f 739/2/6 740/2/6 743/2/6
f 743/2/6 740/2/6 744/2/6
f 745/1/6 746/1/6 747/1/6
f 747/1/6 746/1/6 748/1/6
f 749/1/6 750/1/6 751/1/6
f 751/1/6 750/1/6 752/1/6
f 753/1/6 754/1/6 755/1/6
f 755/1/6 754/1/6 756/1/6
f 757/1/6 758/1/6 759/1/6
f 759/1/6 758/1/6 760/1/6
f 761/4/6 762/4/6 763/4/6
f 763/4/6 762/4/6 764/4/6
